<svg xmlns="http://www.w3.org/2000/svg" xml:space="preserve" x="0px" y="0px" viewBox="0 0 581.85 302.09"><path fill="#FFF" d="M371.44 199.87h-.75v1.15h-.39v-3.08h1.26a.89.89 0 0 1 .94 1 .9.9 0 0 1-.66.94l.7 1.18h-.45l-.65-1.19zm-.75-.35h.83a.61.61 0 1 0 0-1.22h-.83v1.22z"/><path fill="#FFF" d="M371.34 202.36a2.88 2.88 0 1 1 2.87-2.89v.01a2.88 2.88 0 0 1-2.87 2.88zm0-5.38a2.5 2.5 0 1 0 2.49 2.51v-.01a2.5 2.5 0 0 0-2.49-2.5z"/><path fill="#ED6516" d="M235.91 53.97c30.409-30.412 79.713-30.414 110.125-.005l.005.005 22-22c-42.55-42.584-111.565-42.611-154.149-.061l-.061.061 22.08 22z"/><path fill="#FFF" d="M374.45 38.9 352.3 61.09c19.872 25.411 22.031 60.441 5.43 88.1l-40.09-40.1-21.84-51.36h-.11v69.36l43.27 43.27c-28.197 22.064-67.803 22.064-96 0l43.3-43.27v-69.1l-21.95 51.1-40.1 40.1c-16.604-27.66-14.441-62.693 5.44-88.1L207.5 38.9c-38.694 46.116-32.678 114.868 13.438 153.562S335.806 225.14 374.5 179.024c34-40.521 34-99.604 0-140.125h-.05z"/><path fill="#F06414" d="M535.97 239.78h39.78a6.1 6.1 0 0 1 6.1 6.1V296a6.1 6.1 0 0 1-6.1 6.1h-39.78a6.1 6.1 0 0 1-6.1-6.1v-50.12a6.1 6.1 0 0 1 6.1-6.1z"/><path fill="#FFF" d="m550.9 283.48 15.56-14.7a20.007 20.007 0 0 0 2.63-2.72 8.918 8.918 0 0 0 1.81-4.85c.08-1.17.07-2.35.06-3.52a8.595 8.595 0 0 0-.16-1.6 8.95 8.95 0 0 0-.57-1.8l-26.3 24.92a34.409 34.409 0 0 0-2.48 2.5 7.875 7.875 0 0 0-1.86 5.15v5.54h26.85a4.997 4.997 0 0 0 2.88-.91 6.65 6.65 0 0 0 2.87-6v-2l-21.29-.01zM567.52 250.89a5.753 5.753 0 0 0-3.71-1.42h-15.64c-.524 0-1.045.07-1.55.21a7.918 7.918 0 0 0-4.55 3.89 10.766 10.766 0 0 0-1.48 5.78v4h8.9v-5h10.1l7.93-7.46zM497.07 249.45v16.34a.42.42 0 0 1-.42.42h-25.27a.42.42 0 0 1-.42-.42v-16.34a.41.41 0 0 0-.41-.41h-14.07a.41.41 0 0 0-.42.4v43.01c0 .226.183.41.41.41h14.08a.41.41 0 0 0 .41-.41v-16.36a.42.42 0 0 1 .42-.42h25.27a.42.42 0 0 1 .42.42v16.34c0 .226.184.41.41.41h14.08a.41.41 0 0 0 .41-.41v-43a.41.41 0 0 0-.41-.41h-14.08a.41.41 0 0 0-.41.41v.02zM160.8 260.09v-10.64a.41.41 0 0 0-.41-.41h-37.23a.4.4 0 0 0-.37.22l-6.48 12.72a.407.407 0 0 0 0 .19v30.25c0 .226.183.41.41.41H160.46a.41.41 0 0 0 .42-.4v-10.67a.42.42 0 0 0-.42-.42h-28.87a.42.42 0 0 1-.42-.42v-4.83a.42.42 0 0 1 .42-.42h23.85a.42.42 0 0 0 .42-.42v-8.61a.42.42 0 0 0-.42-.42h-23.85a.42.42 0 0 1-.42-.42v-4.84a.42.42 0 0 1 .42-.42h28.82a.41.41 0 0 0 .392-.428l-.002-.022zM329.4 249.09h-16.22a.4.4 0 0 0-.37.22l-21.9 43a.42.42 0 0 0 .38.6h15.79a.4.4 0 0 0 .37-.22l13.47-26.43a.42.42 0 0 1 .74 0l13.46 26.43a.42.42 0 0 0 .38.22h15.79a.41.41 0 0 0 .37-.6l-21.89-43a.41.41 0 0 0-.37-.22zM289.28 249.26l-9.6 18.83a.41.41 0 0 1-.74 0l-9.6-18.83a.4.4 0 0 0-.37-.22h-10.7a.42.42 0 0 0-.38.22l-9.59 18.83a.41.41 0 0 1-.74 0l-9.6-18.83a.4.4 0 0 0-.37-.22H221.8a.412.412 0 0 0-.38.6l21.9 43a.4.4 0 0 0 .37.22h8.48a.41.41 0 0 0 .37-.22l10.71-21a.42.42 0 0 1 .74 0l10.71 21a.4.4 0 0 0 .37.22h8.46a.43.43 0 0 0 .38-.22l21.9-43a.41.41 0 0 0-.37-.6h-15.79a.4.4 0 0 0-.37.22zM438.41 249.09h-32.79a14.272 14.272 0 0 0-4.25.63.402.402 0 0 0-.25.21l-7 13.77a.407.407 0 0 0 0 .19v19.93c0 5 5.18 9.06 11.56 9.06h32.79c6.39 0 11.57-4.05 11.57-9.06v-7.73a.42.42 0 0 0-.42-.42h-14.13a.42.42 0 0 0-.42.42v3.17a2.09 2.09 0 0 1-2.09 2.09h-21.93a2.1 2.1 0 0 1-2.09-2.09v-16.64a2.1 2.1 0 0 1 2.09-2.09h21.93a2.09 2.09 0 0 1 2.09 2.09v3.17c0 .232.188.42.42.42h14.07a.42.42 0 0 0 .42-.42v-7.7c0-5-5.18-9-11.57-9zM394.05 249.09h-56.9a.41.41 0 0 0-.37.6l5.43 10.66a.41.41 0 0 0 .37.23h15.15a.42.42 0 0 1 .42.42v31.47c0 .226.184.41.41.41h14.08a.41.41 0 0 0 .41-.41v-31.52a.42.42 0 0 1 .42-.42h15.15a.42.42 0 0 0 .37-.23l5.43-10.66a.41.41 0 0 0-.37-.55zM93.89 292.61l21.89-43a.41.41 0 0 0-.37-.6H99.62a.42.42 0 0 0-.38.22L85.8 275.69a.42.42 0 0 1-.74 0l-13.49-26.43a.4.4 0 0 0-.37-.22H55.41a.421.421 0 0 0-.38.6l21.9 43a.4.4 0 0 0 .37.22h16.22a.41.41 0 0 0 .37-.25zM48.25 249.71a.41.41 0 0 0-.26-.22c-1.19-.3-2.413-.451-3.64-.45H11.56C5.17 249.09 0 253.09 0 258.09v25.67a7.429 7.429 0 0 0 1.06 3.8.421.421 0 0 0 .62.13l13.06-10.08a.42.42 0 0 0 .16-.33v-14.66a2.1 2.1 0 0 1 2.09-2.09h21.93a2.1 2.1 0 0 1 2.09 2.09v16.63a2.1 2.1 0 0 1-2.09 2.09H20a.382.382 0 0 0-.25.09l-12.88 9.94a.42.42 0 0 0 .12.73c1.474.488 3.017.735 4.57.73h32.79c6.39 0 11.56-4.05 11.56-9.06v-18.92a.407.407 0 0 0 0-.19l-7.66-14.95zM202.71 266.21H188.3a.41.41 0 0 0-.41.41v8.76a.598.598 0 0 0 .2.46l18.32 16.88a.368.368 0 0 0 .28.11h18.87a.41.41 0 0 0 .24-.74l-17.86-16.45h.31c6.39 0 11.56-4.06 11.56-9.06v-8.49c0-5-5.17-9.06-11.56-9.06h-41a.41.41 0 0 0-.41.41v43c0 .226.184.41.41.41h14.07a.41.41 0 0 0 .42-.4v-31.5a.42.42 0 0 1 .42-.42h20.48a2.09 2.09 0 0 1 2.09 2.09v1.47a2.08 2.08 0 0 1-2.02 2.12zM519.8 241.38h.58c.226-.02.454-.02.68 0a.763.763 0 0 1 .35.16.778.778 0 0 1 .26.64.75.75 0 0 1-.62.81l.86 1.16h-.76l-.75-1.06v1.06h-.6v-2.77zm.62.5v.74h.06a.813.813 0 0 0 .39-.06.32.32 0 0 0 .15-.3.34.34 0 0 0-.11-.29.599.599 0 0 0-.38-.09h-.11z"/><path fill="#FFF" d="M520.7 245.21a2.43 2.43 0 1 1 2.42-2.44v.01a2.43 2.43 0 0 1-2.42 2.43zm2-2.43a2 2 0 1 0-3.999-.001 2 2 0 0 0 3.999.001z"/></svg>