<svg xmlns="http://www.w3.org/2000/svg" id="a" width="46" height="60" viewBox="0 0 46 60"><defs><style>.ca{fill:#fff}.cb{fill:#858686}.cc{fill:#e11919}</style></defs><g id="b"><path id="c" d="M33.455 19.972c.247.113.47.272.658.468a5.262 5.262 0 0 0-.786-1.069 4.49 4.49 0 0 0-3.368-1.367c1.017-1.194 1.724-.966 1.724-.966a3.28 3.28 0 0 0-3.386-.709c-.32.103-.668.076-.968-.077 0 0 .29-.064.9-.876a2.46 2.46 0 0 1 1.88-.76 3.7 3.7 0 0 0-3.386-.039c-.688.393-.956.29-.956.29a3.9 3.9 0 0 1 1.8-2 4.77 4.77 0 0 0-3.727 2.194 2.5 2.5 0 0 1 .529-2c-1.685 1.079-1.336 3.794-1.117 4.393s.313-.3.807-1.043a2.54 2.54 0 0 1 2.051-1.122s-.506.1-1.094 1.056a2.34 2.34 0 0 1 1.814.013c.65.288 1.241 1.207 1.911 1.67a12.2 12.2 0 0 0-3.183 1.313 1.53 1.53 0 0 0-1.824.509c-.527.634-.907.765-1.194.765h-.02c-.285 0-.665-.131-1.192-.765a1.534 1.534 0 0 0-1.824-.509 12.2 12.2 0 0 0-3.183-1.313c.67-.462 1.261-1.382 1.911-1.67a2.34 2.34 0 0 1 1.814-.013c-.588-.953-1.1-1.056-1.1-1.056a2.53 2.53 0 0 1 2.052 1.117c.493.74.588 1.639.809 1.043s.568-3.314-1.117-4.393c.456.559.649 1.288.529 2a4.77 4.77 0 0 0-3.727-2.194 3.9 3.9 0 0 1 1.8 2s-.267.1-.956-.29a3.7 3.7 0 0 0-3.388.039 2.46 2.46 0 0 1 1.883.76c.609.812.9.876.9.876-.299.153-.647.18-.966.077a3.28 3.28 0 0 0-3.386.709s.706-.229 1.721.966a4.53 4.53 0 0 0-4.154 2.438 2.01 2.01 0 0 1 2.4-.419 4.3 4.3 0 0 0-1.426 1.423.04.04 0 0 0 .018.005h-.018c-.049.074-.092.157-.139.239q-.046.073-.087.154-.135.262-.239.537.293.086.563.229c.28-.08.579-.056.843.067.131.059.249.105.357.146l.216.077a3 3 0 0 0 .35.09c.202.045.412.031.606-.039a2.2 2.2 0 0 1-.945-.76q-.015-.022-.031-.041a13 13 0 0 1 4.146-.167c.177.023.36.051.539.085q.111.019.223.041c.112.022.172.039.259.059.072.018.141.031.213.051.028.005.051.013.077.018.378.128 1 .342 1.138.421a.04.04 0 0 1 .018-.018q.011-.011.026-.018a.1.1 0 0 1 .028-.01h.031a.13.13 0 0 1 .098.041.13.13 0 0 1 .041.1.14.14 0 0 1-.041.1.1.1 0 0 1-.021.018.13.13 0 0 1-.154 0 .1.1 0 0 1-.021-.018.13.13 0 0 1-.041-.1.1.1 0 0 1 .015-.059 13 13 0 0 1-1.328-.306h-.005a4 4 0 0 0 .203.396q.045.077.1.146l.049.069a1 1 0 0 0 .049.067q.054.077.113.144c.059.067.059.072.09.105s.057.064.085.092q.297.32.663.56a1 1 0 0 1-.146-.062l-.092-.041q-.069-.032-.134-.067c-.065-.035-.113-.059-.167-.092l-.077-.049a1 1 0 0 1-.074-.049q-.03-.02-.059-.041l-.041-.028a2.802 2.802 0 0 1-.275-.228 2.15 2.15 0 0 1-.517-.781q-.02-.055-.036-.105a1 1 0 0 1-.031-.11 6 6 0 0 0-.226-.051c.111.564.421 1.068.873 1.423.427.322.905.57 1.415.732a1.9 1.9 0 0 1 .1-1.916 2.23 2.23 0 0 1 2-.712h.005a2.23 2.23 0 0 1 2 .712 1.9 1.9 0 0 1 .1 1.916 4.7 4.7 0 0 0 1.413-.732 2.4 2.4 0 0 0 .876-1.423l-.254.057-.031.108a1.8 1.8 0 0 1-.167.388q-.022.04-.049.082a2 2 0 0 1-.329.406q-.054.053-.113.105-.095.083-.2.152-.05.038-.108.075a1 1 0 0 1-.113.069q-.166.1-.342.18-.093.043-.193.082.024-.017.049-.031c.069-.049.2-.141.347-.272q.092-.084.2-.188.063-.062.126-.131l.026-.031q.068-.072.126-.152a2.366 2.366 0 0 0 .152-.203 3.028 3.028 0 0 0 .318-.57c-.714.185-1.092.27-1.251.293a.13.13 0 0 1 .021.069.139.139 0 1 1-.278 0c0-.077.062-.139.139-.139q.048 0 .085.031c.185-.09.75-.283 1.1-.4.028-.005.051-.013.08-.018.062-.018.123-.028.185-.044a8 8 0 0 1 .511-.108q.3-.054.6-.092a13 13 0 0 1 4.082.175q-.016.019-.031.041a2.2 2.2 0 0 1-.945.76c.259.09.6.141 1.534-.277a1.46 1.46 0 0 1 1.644.457c-.046-.19-.1-.365-.157-.534l-.008-.023a4.7 4.7 0 0 0-1.96-2.549c.23-.12.482-.196.74-.223.343-.037.689.023 1 .172m-13.768 1.68a.1.1 0 0 1-.033.023.12.12 0 0 1-.108 0 .1.1 0 0 1-.033-.023.14.14 0 0 1-.051-.105q0-.015.005-.028a2.6 2.6 0 0 1-.9-.357l-.121-.062c-.015.284.012.569.08.845l-.211-.039a2.4 2.4 0 0 1 .1-.819 4 4 0 0 0-.267-.126 3 3 0 0 0-.059.909 14.4 14.4 0 0 0-4.737.175 1.4 1.4 0 0 0-.19-.2 2 2 0 0 0-.293-.213q-.034-.02-.064-.036l-.06-.027a1 1 0 0 0-.162-.072.35.35 0 0 1 .149-.059 1 1 0 0 1 .1-.015c.315-.014.63.024.932.113q.152.039.308.057.2.023.4.015.048-.002.1-.008a1.635 1.635 0 0 0 .336-.059 1.9 1.9 0 0 0 .66-.319 1.6 1.6 0 0 0 .298-.293 1 1 0 0 0 .059-.08 1 1 0 0 1-.077.008c-.067 0-.172.01-.3.005h-.08a2.5 2.5 0 0 1-1.282-.414 1 1 0 0 1-.118-.09 2 2 0 0 1-.113-.1 1 1 0 0 1-.108-.108h.005l.031.013a.8.8 0 0 0 .175.057q.093.02.188.028c.033 0 .072.005.11.005s.067 0 .1-.005.064-.005.1-.01h.013a1 1 0 0 0 .118-.023h.013l.108-.033c.036-.012.082-.031.126-.046q.22-.096.406-.247.01-.008.026-.021c.573.136 1.379.365 2.119.627.254.09.5.182.727.28l.131.057q.195.089.36.175.319.176.66.3a.8.8 0 0 1 .155.143.14.14 0 0 1 .236.1.14.14 0 0 1-.051.105m1.151-.943a.12.12 0 0 1-.108 0 .14.14 0 0 1-.085-.128q0-.035.021-.064c-.262-.126-.968-.565-1.071-.609-.057-.023-.239-.149-.537-.326a3 3 0 0 0-.234.18 1.88 1.88 0 0 0-.221.226 2 2 0 0 0-.154.219 2 2 0 0 0-.092.162q-.04.075-.072.154a14 14 0 0 0-2.836-.745l.149-.126q.042-.035.08-.072l.185-.177c.193-.2.319-.357.475-.511a2.452 2.452 0 0 1 .404-.328h-.026a.1.1 0 0 1-.026.005.1.1 0 0 1-.028.005l-.072.015-.041.008-.146.023q-.054.008-.11.013h-.036a2 2 0 0 1-.2.01.686.686 0 0 1-.244-.059l-.067-.031a1 1 0 0 1-.17-.1l-.013-.008a1 1 0 0 1-.082-.062q-.045-.035-.074-.062c-.029-.027-.028-.026-.039-.033l-.01-.008-.018-.015c.271.056.554.007.791-.136q.886.243 1.729.611.714.311 1.379.714l.316.193q.076.055.159.1a1 1 0 0 1 .123.067c.031.021.062.039.092.062.432.321.663.506.763.6a.134.134 0 0 1 .182.01.13.13 0 0 1 .041.1.14.14 0 0 1-.085.128m3.26-.848a1 1 0 0 0-.064.064 1.742 1.742 0 0 0-.306.444l-.021.026q-.023.05-.044.1a1.2 1.2 0 0 1-.126.244 1.2 1.2 0 0 1-.673.519c-.028.01-.054.015-.082.023l-.134.021h-.054a1.3 1.3 0 0 1-.606-.124l-.046-.026a1 1 0 0 1-.087-.059.5.5 0 0 1-.077-.069 1.2 1.2 0 0 1-.185-.256l-.041-.077c-.049-.09-.092-.185-.141-.28a1 1 0 0 0-.039-.072 1 1 0 0 0-.039-.069q-.04-.069-.087-.139a1 1 0 0 0-.114-.138q-.032-.033-.067-.067a1 1 0 0 0-.072-.062 1 1 0 0 0-.08-.059.3.3 0 0 0-.039-.026q-.053-.034-.113-.069h.005l.021.008q.036.013.069.033a2 2 0 0 1 .269.166 1 1 0 0 1 .118.1q.023.02.044.039l.021.021a1 1 0 0 1 .09.092 1 1 0 0 1 .064.077q.05.058.092.123.043.066.09.128.047.063.092.118.047.057.1.108.047.053.1.1a.83.83 0 0 0 .76.154q.146-.037.283-.1.138-.06.259-.149a1 1 0 0 0 .095-.075 1.738 1.738 0 0 0 .262-.278q.042-.051.077-.1.075-.1.152-.2l.082-.1a1 1 0 0 1 .087-.092 1 1 0 0 1 .087-.08q.108-.097.236-.162.038-.02.074-.036s-.005 0-.005.005a.2.2 0 0 0-.036.023l-.026.018-.028.021q-.032.022-.072.057l-.08.069-.059.059m1.133.18q-.045.029-.1.057c-.182.105-.4.236-.565.329l-.123.067a.133.133 0 0 1-.018.192.1.1 0 0 1-.033.023.12.12 0 0 1-.108 0 .1.1 0 0 1-.033-.023.14.14 0 0 1-.051-.105.14.14 0 0 1 .139-.139q.024 0 .046.01c.11-.1.339-.277.74-.575q.047-.032.092-.062a1 1 0 0 1 .123-.067q.082-.046.159-.1l.316-.193q.665-.402 1.377-.714a13 13 0 0 1 1.729-.611 1.1 1.1 0 0 0 .794.136l-.018.015-.01.008q-.015.014-.039.033c-.024.019-.044.039-.074.062a1 1 0 0 1-.082.062l-.013.008a1 1 0 0 1-.17.1l-.067.031a.7.7 0 0 1-.244.059q-.062.001-.123-.005a1 1 0 0 1-.072-.005h-.036l-.11-.013-.1-.015-.049-.008-.041-.008-.072-.015a.1.1 0 0 1-.028-.005h-.008q-.023-.006-.033-.008l.092.067a3 3 0 0 1 .2.164q.054.048.1.1c.046.052.046.044.067.067.108.11.2.223.329.357l.08.085.185.177q.038.037.08.072l.149.126c-.969.148-1.919.398-2.836.745a1.4 1.4 0 0 0-.051-.157l-.033-.062a1 1 0 0 0-.059-.1 1 1 0 0 0-.044-.067q-.051-.075-.11-.152a2 2 0 0 0-.221-.226 3 3 0 0 0-.234-.18c-.3.177-.48.3-.537.326l-.026.01s-.005 0-.008.005l-.208.118m7.244 1.459q-.009.001-.026.01a1.7 1.7 0 0 0-.475.285c-.043.038-.087.074-.131.118a1 1 0 0 0-.123.134 14 14 0 0 0-1.885-.26l-.275-.015a13.916 13.916 0 0 0-2.576.103 3 3 0 0 0-.059-.909c-.1.046-.2.09-.29.136.08.263.114.538.1.812q-.116.02-.213.041c.069-.273.097-.555.082-.837l-.1.049a3.3 3.3 0 0 1-.845.352.1.1 0 0 1 .005.033.14.14 0 0 1-.085.128.12.12 0 0 1-.108 0 .14.14 0 0 1-.044-.228.13.13 0 0 1 .154-.028l.026-.026q.053-.049.11-.092.34-.126.658-.3.166-.086.36-.175l.134-.057c.226-.1.473-.19.727-.28.74-.262 1.546-.491 2.119-.627l.026.021q.187.15.406.247.065.025.126.046c.061.021.074.023.108.033h.013a1 1 0 0 0 .231.033q.052.004.1.005a1.496 1.496 0 0 0 .506-.096h.005a3.378 3.378 0 0 1-.221.208 1 1 0 0 1-.118.09 2.5 2.5 0 0 1-1.282.414h-.08a3 3 0 0 1-.377-.013 1.633 1.633 0 0 0 .504.473 1.5 1.5 0 0 0 .228.121 2 2 0 0 0 .622.156c.031 0 .062.008.1.008q.2.008.4-.015.156-.018.308-.057c.881-.221 1.141-.069 1.179-.039 0 0-.005 0-.01.005" class="ca"/><path id="d" d="M43 7.85v14.388a12 12 0 0 0-1.1-1.11V8.613a11.991 11.991 0 0 1-6.829-6.676q-.354.3-.724.586a19 19 0 0 1-1.803 1.233 19.4 19.4 0 0 1-3.204 1.549 19.2 19.2 0 0 1-6.776 1.22h-.149a19.24 19.24 0 0 1-9.073-2.255 19.6 19.6 0 0 1-3.437-2.332q-.115.288-.247.568c-.132.28-.18.37-.275.552A12.1 12.1 0 0 1 4.759 7.82c-.18.1-.36.2-.542.29q-.274.136-.56.265c-.286.129-.38.162-.573.234v12.838q-.082.207-.136.424l-.028.1-.028.008a6.5 6.5 0 0 0-.914.277V7.85l.714-.27a10.85 10.85 0 0 0 6.183-6.059l.58-1.418 1.166.992A18.24 18.24 0 0 0 22.414 5.42h.144c4.321 0 8.502-1.532 11.799-4.325l1.166-.992.573 1.418a10.85 10.85 0 0 0 6.193 6.06z" class="cc"/><path id="e" d="M43.001 39.92v1.138L22.489 59.897l-8.081-7.421c.074-.411.154-.853.249-1.272l7.832 7.192 19.407-17.824v-.162q.423-.097.8-.311c.1-.054.206-.116.308-.182" class="cc"/><path id="f" d="M8.161 45.236q-.408.455-.727.832l-5.459-5.01V27.916c.3.249.662.411 1.048.468q.03.005.059.005v12.184z" class="cc"/><path id="g" d="M41.167 40.429 24.136 56.073l-.781-3.052a11.2 11.2 0 0 1-.265-2.908c.031 0 .059.005.09.005a2.86 2.86 0 0 0 1.744-.629 24 24 0 0 0 2.353-2.135h.015a4.3 4.3 0 0 0 1.629-.4 8.2 8.2 0 0 0 2.3-1.505h.072q.185 0 .367-.031a6.04 6.04 0 0 0 2.923-1.731l.3-.275a5.36 5.36 0 0 0 2.908-1.531q.018-.017.036-.033a4.2 4.2 0 0 0 2.248-.943c.126-.085.272-.188.424-.3q.308-.049.581-.2c.031.008.062.01.092.015"/><path id="h" d="m24.004 56.19-1.516 1.392-7.668-7.043.015-.059a8.7 8.7 0 0 0 2.022 1.022c.6.208 1.079.419 1.464.591.412.23.87.363 1.341.39.367 0 .726-.108 1.03-.313a6.9 6.9 0 0 0 1.107 1.708z"/><path id="i" d="M41.297 9.018v11.615c-.3-.231-.614-.45-.932-.647a7.72 7.72 0 0 0-4.611-1.176l.026-.108a5.77 5.77 0 0 0-1.644-4.77q.302-.566.681-1.084c1.01-1.469 2.7-3.925.943-5.864a3.93 3.93 0 0 0-2.993-.95c-.78-.019-1.547.2-2.2.627a10 10 0 0 0-.814.67c-.478.424-.927.825-1.32.825a.8.8 0 0 1-.316-.072 4.5 4.5 0 0 0-1.806-.372 3.94 3.94 0 0 0-2.379.735c-.427.307-.9.546-1.4.709a5 5 0 0 1-1.4-.709 3.94 3.94 0 0 0-2.381-.735 4.5 4.5 0 0 0-1.8.372.8.8 0 0 1-.316.072c-.4 0-.845-.4-1.323-.825a9 9 0 0 0-.812-.67 3.83 3.83 0 0 0-2.2-.627 3.93 3.93 0 0 0-2.993.95c-1.754 1.939-.067 4.4.943 5.864q.374.516.681 1.076a5.79 5.79 0 0 0-1.644 4.778l.175.763a8.4 8.4 0 0 0-.293 1.986l-.005.223a3.6 3.6 0 0 0-.673.347l-.457.347a16 16 0 0 0-.521-.421l-.023-.085a2.033 2.033 0 0 0-2.037-1.837q-.33.003-.655.069a2.4 2.4 0 0 0-1.115.5V9.018a12.58 12.58 0 0 0 6.457-6.12 19.94 19.94 0 0 0 12.279 4.228h.149A19.95 19.95 0 0 0 34.84 2.898a12.57 12.57 0 0 0 6.457 6.12"/><path id="j" d="M10.077 43.275a35 35 0 0 0-1.51 1.523L3.681 40.31v-11.6a17 17 0 0 0 1.528.938v8.11a5.57 5.57 0 0 0 4.868 5.52"/><path id="k" d="m14.334 26.203-.8.8v-1.414c.054.051.154.146.29.259q.244.197.511.36" class="ca"/><path id="l" d="m43.582 22.956-.057-.08-.062-.083-.026-.031a13.238 13.238 0 0 0-.971-1.094 11 11 0 0 0-.57-.537V8.614a8 8 0 0 1-.362-.146l-.354-.154a5 5 0 0 1-.347-.167 9 9 0 0 1-.678-.362q-.166-.093-.329-.2c-.163-.107-.216-.134-.321-.208s-.221-.149-.329-.229-.2-.141-.3-.218-.2-.157-.3-.236-.2-.162-.293-.247-.172-.152-.254-.229c-.1-.1-.2-.193-.3-.29s-.182-.18-.267-.272a11.97 11.97 0 0 1-2.394-3.72q-.354.3-.724.586a19 19 0 0 1-1.803 1.233 19.4 19.4 0 0 1-3.204 1.549 19.2 19.2 0 0 1-6.776 1.22h-.149q-.616 0-1.22-.041-.3-.018-.6-.046c-.3-.028-.4-.039-.6-.064a15 15 0 0 1-1.179-.185 13 13 0 0 1-.581-.118 15 15 0 0 1-1.141-.288q-.282-.078-.56-.17c-.278-.092-.37-.118-.552-.185s-.365-.128-.545-.2-.36-.141-.537-.216a14 14 0 0 1-.576-.257 9 9 0 0 1-.473-.226q-.258-.124-.511-.259-.739-.393-1.438-.848a16 16 0 0 1-1.354-.961 19 19 0 0 1-.645-.524q-.115.288-.247.568c-.132.28-.18.37-.275.552a12.1 12.1 0 0 1-4.625 4.762c-.18.1-.36.2-.542.29s-.37.18-.56.265-.38.162-.573.234v12.841q-.082.208-.136.424l-.028.092-.028.008a6.5 6.5 0 0 0-.914.277 2.3 2.3 0 0 0-1.615 2.112 1.88 1.88 0 0 0 1.071 1.847c-.093.428-.031.875.175 1.261q.145.258.37.45c.3.249.662.411 1.048.468q.03.005.059.005v12.182l5.077 4.668-.2.223q-.191.215-.365.414-.08.098-.164.193c-.38.455-.663.814-.837 1.048-1.178 1.573-1.774 2.365-1.222 3.473.164.294.388.549.658.75q.236.361.555.652.212.23.46.419c.309.233.687.358 1.074.357a2.02 2.02 0 0 0 1.734-1.117 3.3 3.3 0 0 0 .074 1.711c.218.57.8 2.088 2.307 2.088h.046a1.92 1.92 0 0 0 1.739-1.248 9.4 9.4 0 0 0 .375-1.629q.009-.046.018-.1c.074-.411.154-.85.249-1.269l7.832 7.192 19.406-17.825v-.159q.423-.097.8-.311.152-.082.308-.182a5.5 5.5 0 0 0 1.143-.956q.218-.256.354-.563c.371-.53.425-1.219.141-1.8l-.175-.362-.18-.177a2 2 0 0 0-.365-.5l-.18-.18a2 2 0 0 0-.19-.172q.218-.323.421-.658a11.7 11.7 0 0 0 1.446-3.553l.005-.015.026-.126.021-.121a9.77 9.77 0 0 0-1.888-7.788M3.681 9.023q.266-.11.524-.236c.085-.041.17-.08.254-.126s.17-.085.254-.131.17-.09.252-.136a11 11 0 0 0 .788-.481q.152-.099.293-.2c.141-.101.193-.136.288-.208s.19-.141.283-.216.182-.146.272-.223a12 12 0 0 0 1.233-1.182l.023-.026q.093-.102.182-.208c.059-.072.139-.162.205-.244a12 12 0 0 0 1.063-1.503q.293-.489.542-1a19 19 0 0 0 2.047 1.407l.357.208.36.2.365.193q.185.1.37.185t.37.177q.188.089.375.17c.187.081.252.11.38.162s.252.105.38.154.257.1.385.146l.375.134q.015.008.031.013l.326.108q.08.026.159.049l.28.087q.197.062.4.116.175.048.354.092l.077.021.342.085q.213.048.426.1.406.085.812.154.204.036.408.064c.204.028.275.039.411.054s.272.033.408.049h.01q.2.022.4.039l.414.031a19 19 0 0 0 1.251.041h.149c.416 0 .835-.013 1.248-.041l.414-.031.414-.039q.208-.022.411-.049l.411-.054q.204-.028.408-.064.408-.071.812-.154l.247-.054q.108-.023.216-.051c.1-.021.188-.044.283-.067q.23-.059.457-.121.197-.053.4-.116l.378-.116q.012.002.021-.008.192-.063.385-.128c.193-.065.259-.09.388-.139s.257-.1.385-.146.254-.1.38-.154q.575-.231 1.128-.509l.367-.185q.184-.093.365-.193.409-.219.807-.462.279-.168.55-.344a1 1 0 0 0 .092-.062q.132-.086.259-.175.196-.132.393-.272.338-.237.665-.5.248.517.542 1 .028.047.059.09.12.196.244.388.157.237.326.468l.17.226q.093.123.19.241.075.093.149.182a9 9 0 0 0 .563.624q.108.115.221.226.3.3.622.578l.162.139q.135.116.275.223.111.088.223.172a12 12 0 0 0 1.677 1.069c.085.044.167.09.254.131s.17.085.254.126q.258.126.524.236v11.606c-.3-.231-.614-.45-.932-.647a7.72 7.72 0 0 0-4.609-1.177l.026-.105a5.77 5.77 0 0 0-1.644-4.77c.021-.044.046-.1.082-.159a2 2 0 0 1 .121-.205q.096-.149.2-.306l.077-.113q.046-.065.085-.126c.039-.061.054-.077.077-.113l.039-.054c1.01-1.469 2.7-3.925.943-5.864a3.93 3.93 0 0 0-2.993-.95c-.78-.019-1.547.2-2.2.627a10 10 0 0 0-.814.67q-.045.042-.09.077c-.045.035-.059.054-.087.077s-.059.054-.087.077l-.087.074c-.059.049-.116.1-.172.139l-.085.064a2 2 0 0 1-.409.244.7.7 0 0 1-.154.051.5.5 0 0 1-.149.021.8.8 0 0 1-.316-.072 4.5 4.5 0 0 0-1.806-.372 3.94 3.94 0 0 0-2.379.735c-.427.307-.9.546-1.4.709l-.033-.013-.041-.013q-.042-.014-.1-.033l-.157-.062c-.028-.013-.059-.023-.09-.039l-.1-.041-.1-.044a4 4 0 0 1-.2-.1q-.052-.026-.1-.057a1 1 0 0 1-.1-.057 3 3 0 0 1-.292-.187 3.941 3.941 0 0 0-2.471-.799 4.5 4.5 0 0 0-1.8.372.8.8 0 0 1-.316.072.6.6 0 0 1-.152-.021.6.6 0 0 1-.154-.051 1.297 1.297 0 0 1-.242-.128 2 2 0 0 1-.167-.116q-.043-.03-.085-.064-.085-.063-.172-.139l-.087-.074q-.043-.035-.087-.077c-.044-.042-.059-.049-.087-.077s-.059-.049-.09-.077a9 9 0 0 0-.812-.67l-.149-.1a3.107 3.107 0 0 0-.671-.31l-.069-.023q-.016-.004-.033-.01l-.108-.031a4 4 0 0 0-.636-.12h-.01l-.046-.005h-.021q-.15-.016-.3-.021H12.3A3.93 3.93 0 0 0 9.307 7c-1.754 1.939-.067 4.4.943 5.864q.374.516.681 1.076a5.79 5.79 0 0 0-1.644 4.778l.175.763a8.4 8.4 0 0 0-.293 1.986l-.005.221a3.6 3.6 0 0 0-.673.347l-.457.347a16 16 0 0 0-.521-.421l-.023-.082c-.008-.031-.008-.039-.013-.059q-.014-.062-.036-.136l-.008-.028a1 1 0 0 0-.039-.134l-.026-.077-.031-.087-.067-.164a.2.2 0 0 0-.018-.033 3 3 0 0 0-.085-.167l-.051-.09c-.018-.031-.039-.075-.059-.111a2 2 0 0 0-.139-.175q-.038-.043-.08-.082c-.042-.039-.077-.072-.118-.108a1.5 1.5 0 0 0-.205-.144q-.054-.033-.113-.062c-.059-.029-.082-.039-.123-.057s-.057-.023-.087-.033l-.092-.028a2 2 0 0 0-.2-.046q-.046-.007-.1-.018h-.013a3 3 0 0 0-.339-.021q-.33.003-.655.069a2.4 2.4 0 0 0-1.115.5zM1.965 27.267a1.55 1.55 0 0 1-.054-1.275c-.039-.023-.085-.044-.121-.064a2.2 2.2 0 0 1-.644-.436 1.4 1.4 0 0 1-.201-.272 1.3 1.3 0 0 1-.136-.365l-.021-.105a2 2 0 0 1-.008-.501 1 1 0 0 1 .01-.082.5.5 0 0 1 .015-.092.2.2 0 0 0 .005-.036q.01-.05.026-.1c.059-.231.168-.447.321-.63a.3.3 0 0 1 .046-.057l.049-.054.08-.08q.04-.04.085-.074l.087-.069.092-.064q.183-.12.383-.213a5.7 5.7 0 0 1 1.061-.339.2.2 0 0 0 .046-.01c.041-.013.085-.023.121-.033a.03.03 0 0 0 .018-.015q.089-.152.121-.326c.013-.041.023-.085.039-.131q.034-.116.082-.244a1.8 1.8 0 0 1 .218-.411 1.5 1.5 0 0 1 .265-.283l.007-.014a.6.6 0 0 1 .1-.07 1.674 1.674 0 0 1 .344-.187q.175-.074.36-.116l.113-.023.154-.028c.1-.015.2-.026.288-.031h.236a1 1 0 0 1 .1.005q.045.003.09.013a1 1 0 0 1 .085.013m.008 0a1 1 0 0 1 .159.039.2.2 0 0 1 .064.021l.062.023a1.576 1.576 0 0 1 .277.152 1 1 0 0 1 .107.089l.01.008q.046.042.085.085c.168.192.296.415.375.658q.069.204.116.414.021.09.044.17.238.182.45.352.095.075.185.154c.09.079.139.116.205.172q.235.205.432.39.162.154.3.293c.387.361.709.787.951 1.259a1 1 0 0 1 .062.175c-.031-.018-.064-.031-.1-.049a4.7 4.7 0 0 0-1.421-.48c-.28-.054-.575-.1-.876-.126q-.343-.035-.694-.054h-.067c-.118-.008-.234-.01-.352-.015l-.131-.006h-.013l-.254.229q.057.064.108.134h.008q.077.092.144.18a10.898 10.898 0 0 1 1.266 1.929 8 8 0 0 0-1.2-.5q-.259-.092-.552-.188a5 5 0 0 0-.254-.082l-.074-.014-.152-.046a6 6 0 0 0-.241-.074c-.015.059-.033.113-.051.17q-.016.057-.036.118.05.093.087.193.084.212.146.432c.072.257.136.539.2.827.1.473.18.95.267 1.325q.059.275.164.537h-.005a.3.3 0 0 0-.046-.026l-.113-.059q-.109-.06-.267-.149a17 17 0 0 1-1.338-.845l-.19-.139q-.109-.08-.213-.164a1.145 1.145 0 0 1-.373.003h-.013a2 2 0 0 1-.439-.128 1 1 0 0 1-.129-.063l-.028-.015a.5.5 0 0 1-.085-.051 1.323 1.323 0 0 1-.426-.436l-.01-.018m8.11 16.008-.311.3c-.103.1-.2.2-.3.293q-.242.24-.468.473c-.226.233-.293.308-.432.455l-4.884-4.49v-11.6c.146.1.3.2.444.3.221.141.432.27.619.378q.186.11.331.19a1 1 0 0 0 .069.039q.034.02.064.036v8.133q-.002.129.008.257c.01.128.01.162.018.241s.015.154.026.229q.004.026.005.051.019.116.041.231l.033.162c.012.054.023.113.039.167v.015q.02.067.036.134.01.04.026.08l.008.026c.013.049.028.1.044.141l.018.046q.023.078.054.152a2.776 2.776 0 0 0 .092.236l.046.1q.04.085.082.17.066.14.146.277l.092.157q.065.108.134.208a5.5 5.5 0 0 0 .622.765l.177.175q.09.084.182.164c.092.08.128.108.2.159a4.538 4.538 0 0 0 .398.287c.079.051.139.09.211.131a6 6 0 0 0 .899.434q.117.044.236.08c.119.036.162.051.244.072s.164.044.247.062q.248.059.5.09m6.785 8.217c.6.208 1.079.419 1.464.591q.101.047.19.082.066.032.123.054.1.044.193.08c.093.036.126.046.188.067.208.071.427.108.647.108.367 0 .726-.108 1.03-.313.092.2.19.385.285.552l.082.141q.07.115.136.218.033.054.067.1c.034.046.044.064.064.1s.057.08.082.116q.077.108.146.2c.069.092.085.105.118.146s.062.074.085.1l.026.031.015.015 2.2 2.309-1.516 1.392-7.668-7.043.015-.057a8.7 8.7 0 0 0 2.028 1.011m6.322-1.385a2.86 2.86 0 0 0 1.744-.629q.075-.057.154-.121c.079-.064.1-.08.154-.121.1-.085.206-.17.308-.257l.154-.134c.1-.09.205-.18.306-.275l.152-.139.3-.28a1 1 0 0 0 .074-.069c.134-.128.262-.257.388-.378l.365-.362h.015q.37-.004.727-.1a6.2 6.2 0 0 0 1.175-.423q.069-.032.139-.067c.092-.046.185-.1.28-.149s.188-.108.283-.167.188-.121.285-.188.193-.136.29-.208.18-.136.272-.211q.002.001.008-.005c.1-.08.208-.167.313-.259q.075-.062.152-.128h.072a2.2 2.2 0 0 0 .529-.064l.164-.041a3.4 3.4 0 0 0 .67-.26q.087-.041.175-.09c.088-.049.118-.064.177-.1a9.8 9.8 0 0 0 1.577-1.201l.3-.275a5.36 5.36 0 0 0 2.905-1.525q.018-.017.036-.033a4.2 4.2 0 0 0 2.248-.943c.126-.085.272-.188.424-.3q.308-.049.581-.2c.031.008.059.01.09.015L24.136 56.073l-.779-3.052a11.2 11.2 0 0 1-.265-2.908c.031 0 .059.005.09.005m21.675-19.426-.008.054-.018.09v.008a11.2 11.2 0 0 1-1.379 3.4q-.205.333-.421.655l-.026.033q-.237.352-.5.691c.183.041.355.125.5.244q.027.02.054.046c.027.026.054.041.08.067l.185.185q.168.167.252.388l.193.193.113.234a.94.94 0 0 1-.126 1.012 1.5 1.5 0 0 1-.259.429q-.224.251-.491.457-.335.267-.709.475a2.7 2.7 0 0 1-.4.18 1.3 1.3 0 0 1-.411.074q-.095 0-.188-.018a1 1 0 0 1-.367-.136.962.962 0 0 1-.732.337h-.018c-.211.159-.426.308-.6.429a3.36 3.36 0 0 1-1.767.786q-.147 0-.29-.033h-.005c-.1.1-.2.2-.3.29a4.3 4.3 0 0 1-2.561 1.32q-.06.001-.113-.005h-.01a17 17 0 0 1-.521.491 5.4 5.4 0 0 1-2.495 1.524 1.512 1.512 0 0 1-.583-.026 7.9 7.9 0 0 1-2.332 1.608 3.6 3.6 0 0 1-1.31.334q-.168 0-.334-.036l-.049.051a26 26 0 0 1-2.5 2.291c-.346.28-.773.44-1.218.455h-.015c-.201 0-.4-.037-.588-.11a7 7 0 0 0-.105.863 11.7 11.7 0 0 0 .275 3.149l.29 1.135-.807-.848a6.3 6.3 0 0 1-1.086-1.747 6 6 0 0 1-.46-1.875 2 2 0 0 1-.236.044c-.041.005-.085.018-.126.021.041.054.074.105.108.157q.095.146.144.313a.97.97 0 0 1-.139.876c-.023.031-.051.054-.077.082a.95.95 0 0 1-.7.306 2.45 2.45 0 0 1-.992-.316c-.383-.17-.9-.4-1.536-.619a8.7 8.7 0 0 1-2.453-1.377c-.062.046-.136.105-.231.18-.046.036-.157.118-.2.152l-.015.013a.2.2 0 0 0-.044.033.8.8 0 0 0-.074.2c-.059.182-.128.447-.18.65l-.013.046c-.1.385-.182.8-.259 1.2-.041.213-.08.424-.116.624s-.072.4-.105.575a5 5 0 0 1-.223.886 1.07 1.07 0 0 1-.968.714h-.026c-.922 0-1.3-1-1.513-1.541-.2-.514-.074-1.287.421-3.506l.013-.064.018-.08q.074-.334.123-.534c.072-.223.096-.458.072-.691q-.324.416-.67.884c-.354.468-.727.966-1.128 1.5-.182.247-.321.457-.424.611-.239.362-.488.737-1.027.737a.94.94 0 0 1-.57-.19 3 3 0 0 1-.365-.337 2.5 2.5 0 0 1-.514-.64 1.7 1.7 0 0 1-.537-.542c-.29-.578-.059-.976 1.148-2.576.164-.221.426-.557.783-.984q.316-.375.727-.835.193-.211.406-.442a36 36 0 0 1 2.109-2.078l.357-.319q.543-.478 1.143-.968a4.65 4.65 0 0 1-1.844.455c-.062 0-.123.01-.185.01a4.723 4.723 0 0 1-4.722-4.711v-7.663l.532.277-.532-1.052v-2.414q0-.13.013-.257.483.163.935.4l1.052.646.2.123-.2-.416-.442-.914c-.013-.023-.141-.285-.408-.714-.018-.028-.033-.057-.054-.087-.131-.208-.293-.45-.485-.717q.098-.13.211-.249l.1-.105q.566.043 1.125.144l.2.039q.1.02.193.046.194.046.372.108.338.116.645.3l.057.033.647.4-.139-.814a1.7 1.7 0 0 0-.2-.48 5.5 5.5 0 0 0-.742-.974l-.17-.177c-.092-.1-.19-.19-.3-.293a2.8 2.8 0 0 1 1.048-.557q.246-.071.5-.1a6 6 0 0 1-.046-.578v-.059c0-.09-.008-.18-.008-.27a6.1 6.1 0 0 1 .916-3.489c.545-.624.753-1.146.2-1.058s-1.115.935-1.115.935a6.63 6.63 0 0 1 1.474-3.391c.519-.647-.658-1.631-1.1-2.592s-1.639-3.118-.56-4.1a3.6 3.6 0 0 1 4.069-.337c1.02.719 1.9 2.078 3.226 1.5a3.53 3.53 0 0 1 3.37.254c.56.424 1.202.727 1.885.891h.021a5.1 5.1 0 0 0 1.885-.891 3.53 3.53 0 0 1 3.368-.254c1.331.575 2.207-.783 3.229-1.5a3.6 3.6 0 0 1 4.069.337c1.079.981-.116 3.142-.56 4.1s-1.618 1.945-1.1 2.592a6.63 6.63 0 0 1 1.474 3.391s-.557-.848-1.115-.935-.349.434.2 1.058c.254.337.442.719.555 1.125q.09.278.159.593l.126-.039q.246-.066.5-.1a7.047 7.047 0 0 1 4.709 1.038 11 11 0 0 1 1.856 1.459q.596.578 1.1 1.238l.036.044.054.072a9.17 9.17 0 0 1 1.765 7.37m-36.6-2.875" class="ca"/><path id="m" d="M35.792 25.239q.008.288 0 .581h-1.266l-1.541 1.552-.432-1.552h-1.287q.162-.133.308-.283c-1.729.64-2.885-.989-1.436-.73s1.952-1.421 2.746-1.526 1.367 1.058 1.367 1.058a3.34 3.34 0 0 0-.683-3.088 1.04 1.04 0 0 1-.331-.573c-.015-.17.113-.236.457 0 .497.445.888.996 1.143 1.613a9 9 0 0 0 .044-.5c.259.475.464.979.611 1.5q.087.307.157.658.099.509.131 1.025c0 .041.008.082.01.123s0 .1 0 .144" class="ca"/><path id="n" d="m43.026 34.896-.023.033v-.044l.026.008"/><path id="o" d="M15.44 25.275a1 1 0 0 1-.087.077 1.563 1.563 0 0 1-.259.162 1.9 1.9 0 0 1-.602.162q-.23.02-.46-.01a.6.6 0 0 1-.134-.021 1 1 0 0 1-.158-.033 1 1 0 0 1-.116-.033l-.085-.028v-.231a3.5 3.5 0 0 0-.174-1.086c.217.224.479.399.768.516.257.091.533.111.8.059q.075-.015.152-.021a.8.8 0 0 1 .319.015.2.2 0 0 1 .051.018.24.24 0 0 1 .082.057c.1.1.054.249-.092.4" class="ca"/><path id="p" d="M41.297 31.758q-.08.237-.175.48a8.4 8.4 0 0 1-1.114 1.994c-.76-.93-2.4-1.492-4.423-1.343-.1.008-.193.018-.29.028q-.3.032-.6.082v-.123l.853-2.63a7.5 7.5 0 0 1 1.205-.961 6.5 6.5 0 0 1 4.542-1q.17.032.334.069a7.4 7.4 0 0 1-.334 3.409" class="ca"/><path id="q" d="M11.806 20.785a1 1 0 0 1-.067.152 1.352 1.352 0 0 1-.244.313.3.3 0 0 0-.046.046c-.015.018-.033.033-.049.054a2.3 2.3 0 0 0-.256.37 3.4 3.4 0 0 0-.254.552q-.15-.012-.3-.013h-.01q-.068.002-.141.008c-.069 0-.141.008-.208.013a6 6 0 0 1 .534-.96q.159-.236.36-.437a1.6 1.6 0 0 1 .244-.211c.247-.17.383-.182.432-.116a.24.24 0 0 1 .005.223" class="ca"/><path id="r" d="m22.017 33.566-.021.023.005-.026z"/><path id="s" d="M8.108 24.755a3.3 3.3 0 0 0-.049.563v2.083l-.442-.914a11.4 11.4 0 0 0-.948-1.518q.098-.13.211-.249c.026-.028.062-.064.1-.108q.566.044 1.125.144"/><path id="t" d="M18.566 28.991v.349c0 1.1-.57 1.343-1.2 1.343h-.7v-2.984h.7c.632 0 1.2.259 1.2 1.292"/><path id="u" d="M13.114 25.318v10.767a.75.75 0 0 1-.396.665 1 1 0 0 1-.085.035.77.77 0 0 1-.637-.039.759.759 0 0 1-.396-.665V25.254a1.18 1.18 0 0 0-.257-.812.8.8 0 0 0-.177-.149 1 1 0 0 0-.401-.139 1 1 0 0 0-.188-.015q-.05.002-.1.008a.96.96 0 0 0-.6.234 5.5 5.5 0 0 0-.742-.974 6 6 0 0 0-.167-.177c.234-.193.504-.338.794-.426q.351-.107.717-.116c.033 0 .064-.005.1-.005q.096.002.19.008a2.7 2.7 0 0 1 .763.161c.277.103.531.257.75.455l.1.092q.095.093.175.2.21.268.342.583c.147.363.222.751.218 1.143" class="cc"/><path id="v" d="m24.871 30.388-.216-.912a3 3 0 0 1-.362.434q-.128.125-.272.229a2.2 2.2 0 0 1-.537.285l.236 1.141.144.683h-1.593l.352-1.665c-.031 0-.059.005-.092.005a2.5 2.5 0 0 1-1.248-.3l-1.22 5.058-1.279-3.589c.243-.114.461-.273.645-.468a2.68 2.68 0 0 0 .634-1.9v-.385q.001-.077-.005-.146c-.352-.717-.6-1.521-.989-2.15l-.015-.026a2.55 2.55 0 0 0-1.51-.444h-.331q-.088.033-.177.069l-.18.069-.275.1q-.051.019-.1.033a2.4 2.4 0 0 1-.732.134 2.3 2.3 0 0 1-.606-.087v9.617a2.76 2.76 0 0 1-1.017 2.142 2.752 2.752 0 0 1-1.767.634 2.8 2.8 0 0 1-1.084-.218 3 3 0 0 1-.36-.185 3.2 3.2 0 0 1-.526-.414 2.5 2.5 0 0 1-.481-.637 2.75 2.75 0 0 1-.337-1.325v-10.9l-.057-.033a3 3 0 0 0-.645-.293 4 4 0 0 0-.372-.108 5.885 5.885 0 0 0-.393-.087 3.3 3.3 0 0 0-.049.56v2.086l.2.416-.2-.126v8.482c0 .433.064.864.193 1.277q.083.264.2.514.073.165.164.321.093.156.193.306.05.075.105.146.184.25.406.468a4.3 4.3 0 0 0 5.944.127q.057-.05.11-.105l.108-.11q.108-.112.2-.229a4.28 4.28 0 0 0 .968-2.715l.013-4.041h.724l1.02 3.216h3.19l.4-1.754.005-.026h2.123l.388 1.78h1.539zm-6.3-1.045c0 1.1-.57 1.343-1.2 1.343h-.7v-2.989h.7c.632 0 1.2.259 1.2 1.292z" class="cc"/><path id="w" d="m36.409 26.241-1.567 4.834-.565 1.734v2.543h-1.51v-2.543l-.216-.668-.2-.637-1.408-4.387-.28-.873h1.575l.545 1.947.622 2.23.128.455.159-.568.113-.393 1.045-3.671z" class="cc"/><path id="x" d="M28.011 33.886h2.6v1.462h-4.565l2.636-7.637h-2.379v-1.385q.052-.046.105-.085h1.444c.462.219.958.356 1.467.406a2.73 2.73 0 0 0 1.338-.4l-.3.873z" class="cc"/><path id="y" d="M10.23 22.28v.008zh.005"/><path id="a`" d="M11.941 21.455h-.018s.01.005.015.005"/><path id="aa" d="M33.752 10.429c-.94 1.6-1.754 2.24-1.657 2.9q.006.04.018.077l.008.031-.026-.051c-.013-.025-.023-.039-.036-.062l-.023-.044-.054-.092q-.016-.026-.031-.057-.035-.053-.074-.118l-.085-.131a8 8 0 0 0-.444-.629 8 8 0 0 0-.28-.329 5 5 0 0 0-.154-.162 4 4 0 0 0-.329-.306l-.039-.036c-.051-.049-.059-.087-.039-.116a.05.05 0 0 1 .021-.021.1.1 0 0 1 .028-.015.9.9 0 0 1 .365-.044q.096 0 .2.013.178.014.347.074.186.065.337.19a1.35 1.35 0 0 0-.504-.549 1.7 1.7 0 0 1-.334-.262 1.007 1.007 0 0 1-.157-1.367q.308-.47.7-.873.031-.032.062-.059.06-.06.126-.113a2 2 0 0 1 .128-.1 1.4 1.4 0 0 1 .393-.218q.083-.03.17-.046a.85.85 0 0 1 .434.023c.351.098.676.275.95.516.393.38.565.986-.018 1.983" class="ca"/><path id="ab" d="M18.872 22.781q.045.077.1.146c-.033-.046-.064-.1-.1-.146m.316.73.039.031q.02.016.041.028.03.02.059.041c.029.021.049.033.075.049s.049.031.077.046a3 3 0 0 1-.29-.2" class="ca"/><path id="ac" d="M20.599 27.139a.1.1 0 0 0-.018.015 3.1 3.1 0 0 1-.509-1.076l.085.092q.043.046.09.087c.047.041.057.054.087.08l.067.051.046.031q.061.197.1.4z" class="ca"/><path id="ad" d="M24.993 26.076a3.3 3.3 0 0 1-.447 1l.044-.262a3 3 0 0 1 .118-.452q.08-.062.152-.134.072-.069.134-.146" class="ca"/><path id="ae" d="m20.9 26.628-.087.285.015-.1c0-.008.013-.077.028-.2q.02.006.044.013" class="ca"/><path id="af" d="m20.606 27.185-.026-.031a.1.1 0 0 1 .018-.015z" class="ca"/><path id="ag" d="M24.333 26.967c-.033-.113-.072-.236-.108-.357l.054-.018c.015.131.028.208.028.216z" class="ca"/><path id="ah" d="m14.52 11.413-.039.036a4 4 0 0 0-.331.306l-.152.162c-.1.108-.2.218-.283.329a9 9 0 0 0-.444.629q-.045.07-.085.131-.041.063-.072.118a.3.3 0 0 1-.033.057 1 1 0 0 1-.054.092c-.005.015-.015.031-.021.044s-.026.044-.036.062-.021.044-.026.051l.008-.031a1 1 0 0 0 .018-.077c.1-.658-.719-1.295-1.657-2.9-.583-1-.411-1.6-.018-1.983a2.4 2.4 0 0 1 .95-.516.85.85 0 0 1 .434-.023 1 1 0 0 1 .27.087q.157.07.293.177.066.046.128.1.065.053.126.113.031.028.062.059.392.403.7.873a1.007 1.007 0 0 1-.157 1.367q-.154.15-.337.262a1 1 0 0 0-.067.044l-.059.044a1 1 0 0 0-.105.092 1.2 1.2 0 0 0-.27.37q.151-.125.337-.19.169-.06.347-.074.104-.01.2-.013a.9.9 0 0 1 .365.044q.016.004.028.015a.05.05 0 0 1 .021.021c.018.028.013.067-.039.116" class="ca"/><path id="ai" d="M24.191 27.505v.015l-.005-.026z" class="ca"/><path id="aj" d="m24.547 27.076-.01.069-.01-.039q.01-.016.021-.031"/><path id="ak" d="M24.423 19.602a1.8 1.8 0 0 0-.447.393 1.7 1.7 0 0 0-.249.38l-.015.033q-.024.05-.044.1a1.2 1.2 0 0 1-1.524.746l-.051-.019a.9.9 0 0 1-.233-.129.5.5 0 0 1-.077-.069 1.2 1.2 0 0 1-.185-.256l-.041-.077c-.049-.09-.092-.185-.141-.28a1 1 0 0 0-.039-.072 1 1 0 0 0-.039-.069q-.04-.069-.087-.139a1 1 0 0 0-.057-.074 1.2 1.2 0 0 0-.314-.281 2 2 0 0 0-.123-.072c.326.138.604.369.8.663.324.491.676.84 1.426.509q.139-.06.259-.149a1 1 0 0 0 .101-.075 1.738 1.738 0 0 0 .262-.278q.042-.052.077-.1.075-.1.152-.2l.082-.1.087-.1a1 1 0 0 1 .087-.08 1 1 0 0 1 .24-.159 1 1 0 0 1 .1-.046"/><path id="al" d="m19.477 23.705-.077-.046q-.038-.022-.074-.049c-.036-.027-.039-.028-.059-.041l-.041-.028-.039-.031q.14.108.29.2"/><path id="am" d="M26.516 21.959c.069-.274.097-.557.082-.84l.033-.015c.08.264.114.539.1.814q-.116.02-.213.041"/><path id="an" d="M32.489 21.498c-.3.115-.565.304-.771.55a14.4 14.4 0 0 0-4.737-.172 3 3 0 0 0-.059-.912c-.1.046-.2.09-.29.136l-.033.015-.1.049a3.3 3.3 0 0 1-.845.352.139.139 0 1 1-.273.032.14.14 0 0 1 .196-.124q.063-.065.136-.118.34-.126.658-.3a7 7 0 0 1 .493-.231c.226-.1.473-.19.727-.28.74-.262 1.546-.491 2.119-.627l.026.021c.403.375.987.479 1.495.267a2.54 2.54 0 0 1-2.083.7c.5.662 1.362.937 2.153.686.966-.241 1.184-.039 1.184-.039"/><path id="ao" d="M19.932 18.057h-.013a1 1 0 0 1-.1.023.4.4 0 0 1-.1.018 1.48 1.48 0 0 1-.639-.054 2 2 0 0 1-.275-.118 1.8 1.8 0 0 1-.282-.195 1 1 0 0 1-.064-.064.6.6 0 0 1-.18-.4.6.6 0 0 0 .141.077c.343.063.66.228.909.473a.9.9 0 0 0 .609.244" class="cc"/><path id="ap" d="M26.611 17.67a1.3 1.3 0 0 1-.347.257 2 2 0 0 1-.272.118 1.5 1.5 0 0 1-.639.054.4.4 0 0 1-.1-.018 1 1 0 0 1-.1-.023h-.013a.9.9 0 0 0 .609-.244c.249-.245.565-.41.909-.473a.6.6 0 0 0 .139-.077.6.6 0 0 1-.18.406" class="cc"/><path id="aq" d="M20.922 20.585a.14.14 0 0 1-.127.15.14.14 0 0 1-.15-.127v-.024q0-.037.021-.067c-.262-.126-.968-.565-1.071-.609-.057-.023-.239-.149-.537-.326a2.05 2.05 0 0 0-.773.945 14 14 0 0 0-2.836-.745q.129-.104.231-.2l.185-.177c.193-.2.321-.36.475-.514a2.452 2.452 0 0 1 .404-.328q-.013.001-.051.01a.1.1 0 0 1-.028.005l-.072.015-.041.008-.146.023q-.054.008-.11.013h-.036a2 2 0 0 1-.2.01 1.35 1.35 0 0 1-.717-.38 1.1 1.1 0 0 0 .794-.136q.886.243 1.729.611.714.311 1.379.714c.259.157.421.265.475.288a1 1 0 0 1 .123.067q.047.03.092.062c.432.321.663.506.763.6a.14.14 0 0 1 .082-.031.14.14 0 0 1 .139.141"/><path id="ar" d="M19.738 21.551a.14.14 0 0 1-.127.15.14.14 0 0 1-.15-.127v-.024q0-.016.005-.031a2.6 2.6 0 0 1-.9-.357l-.121-.062c-.015.285.012.571.08.848l-.211-.039a2.4 2.4 0 0 1 .1-.822 4 4 0 0 0-.267-.126 3 3 0 0 0-.059.912 14.4 14.4 0 0 0-4.737.175 1.9 1.9 0 0 0-.773-.552s.221-.2 1.187.039a1.96 1.96 0 0 0 2.153-.686 2.54 2.54 0 0 1-2.083-.7 1.4 1.4 0 0 0 1.5-.267q.01-.008.026-.021c.573.136 1.379.365 2.119.627.254.09.5.182.727.28q.27.116.491.231.319.176.66.3.09.059.154.146a.14.14 0 0 1 .239.1"/><path id="as" d="M20.266 22.751a.14.14 0 0 1-.041.1.14.14 0 0 1-.237-.1.1.1 0 0 1 .015-.059q.065 0 .018-.026a.04.04 0 0 1 .018-.018q.011-.011.026-.018a.1.1 0 0 1 .028-.01.06.06 0 0 1 .031-.005.12.12 0 0 1 .077.026.1.1 0 0 1 .021.018.13.13 0 0 1 .041.1"/><path id="at" d="m20.006 22.688.008-.013.008-.01q.047.028-.018.026"/><path id="au" d="M29.386 19.583q.102.096.231.2c-.969.148-1.919.398-2.836.745a2.05 2.05 0 0 0-.773-.945c-.3.177-.48.3-.537.326-.1.041-.737.439-1.025.586a.14.14 0 1 1-.244.09c0-.077.062-.14.139-.141q.024 0 .046.01c.11-.1.339-.277.74-.575q.047-.033.092-.062a1 1 0 0 1 .123-.067c.054-.023.216-.131.475-.288q.665-.402 1.377-.714a13 13 0 0 1 1.729-.611c.24.145.526.193.8.136-.195.197-.445.33-.717.38q-.062.001-.123-.005a1 1 0 0 1-.072-.005h-.036l-.11-.013-.1-.015-.049-.008-.044-.01-.072-.015q-.015 0-.028-.006h-.008c-.015-.005-.026-.005-.033-.008s-.008 0-.01 0a2.4 2.4 0 0 1 .403.334c.031.036.046.044.067.067.105.11.2.226.329.36l.08.085.185.177"/><path id="av" d="M23.587 26.708c-.049.288-.1.57-.1.688v.046a1.9 1.9 0 0 1-.84.17q-.15 0-.3-.018c-.031 0-.062-.008-.09-.013a2 2 0 0 1-.306-.08 1 1 0 0 1-.316-.167 7 7 0 0 0-.092-.611q.285.07.55.2c.127.063.266.1.408.108h.056a.9.9 0 0 0 .285-.057c.039-.015.074-.031.116-.046q.086-.035.182-.08.213-.096.442-.139" class="ca"/><path id="aw" d="m24.593 25.797-.082.236c-.015-.182-.028-.4-.039-.632l-.008-.2-.185.069a5 5 0 0 1-.419.131l-.026.008a4.7 4.7 0 0 1-1.21.164h-.1a4.7 4.7 0 0 1-1.253-.175c-.167-.046-.308-.1-.411-.134l-.185-.069-.01.2q-.015.366-.039.647l-.085-.244a3.6 3.6 0 0 1-.265-1.007q0-.022.015-.039.008-.014.036-.015h.033q.092.005.175.044.039.015.072.039a.2.2 0 0 1 .069.057l.018.085.087.023c.252.069.627.162 1 .229q.36.1.732.11h.026q.268 0 .529-.064.647-.1 1.279-.272l.08-.015.021-.077a.1.1 0 0 1 .015-.021.14.14 0 0 1 .053-.034.3.3 0 0 1 .062-.036.2.2 0 0 1 .049-.021.36.36 0 0 1 .18-.031q.02 0 .036.015.012.016.013.036a3.6 3.6 0 0 1-.262 1" class="ca"/><path id="ax" d="M24.192 27.52c0 .05-.02.099-.054.136a.4.4 0 0 1-.057.054.27.27 0 0 1-.149.069.1.1 0 0 1-.031-.015l-.081-.051-.08.046c-.338.18-.717.269-1.1.259a2.5 2.5 0 0 1-.789-.121 1.5 1.5 0 0 1-.4-.2l-.113-.082-.085.11a.1.1 0 0 1-.018.018.1.1 0 0 1-.049.031.27.27 0 0 1-.149-.069.4.4 0 0 1-.057-.054.18.18 0 0 1-.054-.154l.008-.023c.039-.134.141-.478.239-.8l.039-.128.023.136q.072.357.108.719v.051l.031.036q.015.02.033.036.077.069.164.121.142.085.3.136.117.042.239.067.258.052.521.051c.069 0 .139 0 .2-.008.304-.013.601-.097.866-.247l.064-.041.015-.008-.013-.09a.5.5 0 0 1-.005-.1c0-.108.051-.416.108-.73l.023-.128.036.123.231.773v.008l.008.028v.013z" class="ca"/><path id="ay" d="m5.232 24.384-.008-.008s.008 0 .01.005"/><path id="b`" d="m4.996 25.443-.023-.005v-.008l.021.015" class="cb"/><path id="ba" d="M6.609 26.036s-.144-.057-.4-.154q-.22-.085-.542-.2-.12-.045-.252-.092-.026-.009-.057-.018l-.362-.128a4.215 4.215 0 0 1-1.316-1.383 3 3 0 0 1-.247-.542q.122-.022.247-.021c.319-.006.633.084.9.259q.194.127.349.3.128.138.288.324l.008.008c.085.1.175.2.267.311l.2.234.069.082q.058.07.116.136c.152.182.3.354.414.5l.319.388" class="ca"/><path id="bb" d="M4.975 25.427v.008l-.218-.074q-.085-.028-.172-.059c-.28-.092-.581-.193-.9-.293l-.162-.049-.221-.069a2 2 0 0 1-.216-.077c-.809-.344-.581-.927 0-1.187q.17-.077.352-.11.097.283.247.542c.251.419.574.791.953 1.1q.164.136.342.265" class="cb"/><path id="bc" d="M6.078 24.193h-.013l.008-.008s0 .005.005.008"/><path id="bd" d="M9.653 24.749a4.6 4.6 0 0 0-.948-1.265q-.14-.139-.3-.293a15 15 0 0 0-.637-.562c-.071-.059-.123-.1-.185-.154q-.21-.17-.45-.352-.021-.078-.044-.17a4 4 0 0 0-.116-.414 1.49 1.49 0 0 0-1.522-1.105 3 3 0 0 0-.578.062 1.8 1.8 0 0 0-1.192.694 2.4 2.4 0 0 0-.339.786c-.041.154-.09.326-.139.339l-.121.033-.1.023a5.7 5.7 0 0 0-1.012.326 1.87 1.87 0 0 0-1.2 1.68 1.54 1.54 0 0 0 1.02 1.554c.036.021.082.041.121.064-.165.413-.144.877.056 1.274l.01.018c.154.257.389.455.668.563q.212.089.439.128h.013a1.2 1.2 0 0 0 .373-.003q.104.084.213.164l.184.145c.475.337.986.642 1.338.845.105.059.2.11.267.149l.167.09a3 3 0 0 1-.167-.539c-.087-.375-.17-.853-.267-1.325a10 10 0 0 0-.2-.827 4 4 0 0 0-.146-.432 2 2 0 0 0-.087-.193q.02-.061.036-.118.028-.085.051-.172.123.035.241.074l.152.046.067.023q.13.04.254.082c.2.064.38.126.552.188q.62.203 1.2.5a11 11 0 0 0-.858-1.391 14 14 0 0 0-.4-.539 4 4 0 0 1-.144-.182h-.005a2 2 0 0 0-.108-.136q.128-.112.254-.229l.008-.008s0 .005.005.008l.134.005q.176.006.352.015h.067q.35.02.694.054c.3.031.6.072.876.126.496.082.976.244 1.421.48.031.018.064.031.1.049a1 1 0 0 0-.062-.175m-4.834 2.42q.065.2.116.4.046.17.08.326c.057.236.092.434.116.563q.004.018.005.036a.3.3 0 0 1 .01.064q.006.015.005.031c0 .008.005.013 0 .018l-.144-.087a32.14 32.14 0 0 1-.488-.326q-.121-.082-.257-.18-.166-.117-.344-.249l-.239-.18-.1-.08c-.033-.026-.069-.054-.1-.082a1.2 1.2 0 0 1-.393-.527.89.89 0 0 1 0-.629.72.72 0 0 1 .331-.38.735.735 0 0 1 .267-.072.8.8 0 0 1 .267.031.73.73 0 0 1 .319.218 2.382 2.382 0 0 1 .336.545q.126.276.216.565m1.049-2.027c.152.182.3.354.414.5l.319.388s-.144-.057-.4-.154q-.22-.085-.542-.2-.12-.044-.252-.092-.026-.009-.057-.018l-.362-.128-.023-.008-.218-.074q-.085-.028-.172-.059c-.28-.092-.581-.193-.9-.293l-.162-.049-.221-.069a2 2 0 0 1-.216-.077c-.809-.344-.581-.927 0-1.187q.17-.077.352-.11.122-.022.247-.021c.319-.006.633.084.9.259q.194.128.349.3.128.138.288.324s.008 0 .01.005c.085.1.175.2.267.311l.2.234.069.082q.058.07.116.136m3.106-.886a.2.2 0 0 1-.039-.01l-.141-.041c-.118-.033-.283-.077-.485-.126s-.419-.1-.67-.141a13 13 0 0 0-.676-.108h-.036a9 9 0 0 0-.339-.039l-.121-.01a9 9 0 0 0-.462-.028q-.041-.002-.082-.008a1 1 0 0 1-.27-.057.64.64 0 0 1-.416-.437 1.07 1.07 0 0 1 .28-.963.705.705 0 0 1 .971-.105c.08.054.17.121.262.19.121.09.249.193.385.3l.316.257.031.026q.086.075.175.146.228.194.444.38l.36.311c.29.257.5.444.524.468h-.01"/><path id="be" d="M8.993 24.267h-.01l-.039-.01-.141-.041q-.22-.119-.439-.226c-.17-.085-.342-.162-.514-.241q-.285-.128-.565-.259-.019-.01-.041-.021l-.211-.105-.154-.077a7 7 0 0 1-.362-.205 4.6 4.6 0 0 1-.992-.783.705.705 0 0 1 .971-.105c.08.054.17.121.262.19.121.09.249.193.385.3l.316.257.031.026q.086.075.175.146.228.194.444.38l.36.311c.29.257.5.444.524.468" class="ca"/><path id="bf" d="M8.803 24.213c-.118-.033-.283-.077-.485-.126s-.419-.1-.67-.141a13 13 0 0 0-.676-.108h-.036a9 9 0 0 0-.339-.039l-.121-.01a9 9 0 0 0-.462-.028q-.041-.002-.082-.008a1 1 0 0 1-.27-.057.64.64 0 0 1-.416-.437 1.07 1.07 0 0 1 .28-.963c.293.306.627.569.992.783q.177.108.362.205l.154.077q.105.055.211.105.022.01.041.021.281.132.565.259c.172.08.344.157.514.241q.22.107.439.226" class="cb"/><path id="bg" d="m5.153 28.603-.144-.087a32.14 32.14 0 0 1-.488-.326q-.093-.124-.185-.252-.122-.174-.236-.354c-.114-.18-.154-.252-.223-.383s-.136-.267-.2-.406a4 4 0 0 1-.267-.912.694.694 0 0 1 .853.177 2.382 2.382 0 0 1 .336.545q.126.276.216.565.066.2.116.4.044.17.08.326c.057.236.092.434.116.563q.004.018.005.036a.3.3 0 0 1 .01.064q.006.015.005.031c0 .008.005.013 0 .018" class="ca"/><path id="bh" d="M4.521 28.189q-.121-.083-.257-.18-.166-.117-.344-.249l-.239-.18-.1-.08c-.033-.026-.069-.054-.1-.082a1.2 1.2 0 0 1-.393-.527.89.89 0 0 1 0-.629.72.72 0 0 1 .331-.38 4.1 4.1 0 0 0 .467 1.318 8 8 0 0 0 .459.737q.093.128.185.252" class="cb"/><path id="bi" d="M24.064 42.682a23 23 0 0 1-1.521 2.435q-.496.696-1.074 1.325c-.149.159-.288.3-.424.434a8 8 0 0 1-.773.691 2.1 2.1 0 0 1-.537.329c-.288.092.229-1.477 1.246-3.247q.128-.218.259-.419a7.2 7.2 0 0 1 1.364-1.562 9.5 9.5 0 0 1 1.372-.956q.135-.086.285-.141c.383-.131.239.3-.2 1.11"/><path id="bj" d="m43.001 34.886.023.008-.026-.008m-.436 2.586a4 4 0 0 1-.444.337q-.112.077-.221.146c-.109.069-.116.077-.17.11q.081-.047.17-.108c.072-.046.146-.1.221-.146q.233-.154.444-.337c.044-.044.077-.074.1-.1-.023.021-.059.051-.1.1m-.229-.686s.008.006.01.01q-.001-.008-.01-.008m-.018-.018a.1.1 0 0 1 .018.018c-.005-.005-.01-.013-.018-.015m-.259-.116a1 1 0 0 0-.159.018q-.084.012-.167.036a2 2 0 0 0-.182.057c-.028.01-.062.026-.09.039-.051.021-.1.041-.159.069l-.033.013q-.102.048-.162.077.058-.023.162-.074l.033-.013q.084-.04.159-.069c.028-.013.062-.028.09-.039q.1-.036.182-.057.083-.024.167-.036.08-.014.159-.018.076-.004.146.028a.3.3 0 0 0-.146-.031m-.159.414.021-.021a.1.1 0 0 0-.021.018m-.313 1.084-.051.031c-.141.077-.218.118-.234.108.015.01.092-.031.234-.108zl.067-.041-.067.039m-.578-1.662c.033-.036.11.015.18.08-.069-.064-.146-.116-.18-.08m-.023.026.013-.013-.013.01m-1.374 1.027a.3.3 0 0 1-.141-.046l-.023-.018-.033-.026q.015.015.033.028l.023.018a.3.3 0 0 0 .141.046q.057.008.105.021a1 1 0 0 0-.105-.023m-.421-.113q-.022.008-.049.021.026-.009.049-.018v-.002m-.426.175c.152-.067.288-.118.378-.154a6 6 0 0 0-.378.154m-.938.6q.038-.041.08-.08-.041.036-.08.077m-1.159.154q-.057-.009-.105-.018a1 1 0 0 1-.116-.028l-.044-.015a.2.2 0 0 0 .044.018 1 1 0 0 0 .116.028q.049.009.105.018a1.03 1.03 0 0 0 0 0m-.444-.18a1 1 0 0 0-.2.141c-.044.036-.18.144-.36.3q-.042.035-.085.074.043-.038.085-.072c.18-.154.316-.262.36-.3q.092-.083.2-.141l.015-.005s-.01-.002-.015 0m-1.233-.493q.07.068.136.136a4 4 0 0 0-.136-.134m-.509-.408q-.029-.018-.057-.036l-.231-.146a5.237 5.237 0 0 1 .231.146q.029.018.057.036.269.185.509.406a5 5 0 0 0-.509-.406m-3.401 5.71a.4.4 0 0 1-.157.046.3.3 0 0 0 .157-.046m2.38-1.513q.149-.1.283-.2-.133.096-.283.2m-.342-2.078h-.01a1.8 1.8 0 0 0-.706.419c.2-.191.442-.333.706-.416h.01a.3.3 0 0 1 .105.044.3.3 0 0 0-.105-.046M31.824 8.172q.138-.102.293-.177a1.4 1.4 0 0 0-.293.177m1-.241a.85.85 0 0 0-.434-.023.9.9 0 0 1 .434.026zm-.7 5.5-.008-.031q0 .015.005.028zm-1.2-2.217a.9.9 0 0 0-.365.044q.179-.053.365-.041.096.001.2.01-.104-.01-.2-.013m.884.277a1.1 1.1 0 0 0-.337-.19q.187.07.339.2v-.005m-1.321 24.82-1.043 1.035h-1.693q-.308.21-.588.457l-.054.046.054-.046q.28-.247.588-.457h1.693zq.137-.014.275-.026-.137.01-.275.026m-.424 6.779q-.078.05-.164.108l.164-.105.062-.039-.062.039m-.326-2.076c-.162-.1-.663-.624-1.012-.321a1 1 0 0 0-.087.082q.042-.04.087-.08c.349-.3.85.223 1.012.321l.023.015a.1.1 0 0 0-.023-.018m-2.736 3.74c.049.072.339-.046.735-.257-.393.205-.681.324-.735.257m.735-.257q.24-.124.519-.288-.279.157-.519.288m1.087-.627v.002c.17-.1.342-.211.5-.313zm-2.171-26.539c-.344.063-.66.228-.909.473a.9.9 0 0 1-.609.244h.013a.9.9 0 0 0 .6-.244c.249-.245.565-.41.909-.473a.555.555 0 0 1 0 0m-3.283 29.454q-.046.032-.085.057a1 1 0 0 0 .085-.054c.871-.6 1.873-1.279 2.751-1.921-.879.642-1.88 1.323-2.751 1.921m2.677-4.952-.036-.013.036.015a.3.3 0 0 1 .092.059.23.23 0 0 0-.092-.062m-.771-1.783h-.003m-.568-13.7v-.002m.1-1.608a.36.36 0 0 0-.18.031.4.4 0 0 1 .18-.028.1.1 0 0 1 .036.013.06.06 0 0 0-.036-.015m-.188 16.251a1.87 1.87 0 0 0-1.03-.09 2 2 0 0 0-.231.067c-.3.141-.582.32-.837.532a6 6 0 0 0-.267.221q.137-.117.267-.218c.255-.212.537-.391.837-.532q.113-.042.231-.067a1.87 1.87 0 0 1 1.169.149 1 1 0 0 0-.139-.062m-.267-16.019q-.632.173-1.279.272a2.3 2.3 0 0 1-.529.064h-.026a3 3 0 0 1-.732-.11c-.375-.067-.75-.159-1-.229l-.087-.023.087.023c.252.069.627.162 1 .229q.36.1.732.11h.026q.268 0 .529-.064.647-.1 1.279-.272l.078-.011zm-.128 1.626.054-.018zm-.447.996-.064.041c-.265.15-.562.234-.866.247a2.683 2.683 0 0 1-.721-.043 2 2 0 0 1-.239-.067 1.5 1.5 0 0 1-.3-.136v.002q.142.084.3.136.117.042.239.067.258.052.521.051c.069 0 .139 0 .2-.008.304-.013.601-.097.866-.247l.064-.041.015-.008zm-.3 2.813q.29-.106.537-.288a2.2 2.2 0 0 1-.537.285m-.339-3.573q.214-.093.442-.136a2 2 0 0 0-.442.139m.069 20.041q-.123.062-.162.023.034.046.162-.021a1 1 0 0 0 .072-.041zm-.681-16.3a2.524 2.524 0 0 0 0 0c.033 0 .062-.005.092-.005-.031 0-.059.005-.092.005m.028-3.555H22.5a1.1 1.1 0 0 1-.408-.108 2.763 2.763 0 0 1 0 0c.127.063.266.1.408.108zv-.002m-.807 11.5v.002q.126.058.241.134a1.3 1.3 0 0 0-.241-.136m-.896-11.909q.02.006.044.013-.023-.006-.044-.013m-.457-.223q.022.018.046.033l-.046-.031m-.034-1.664h-.033q-.028 0-.036.015a.1.1 0 0 1 .036-.013h.033q.091.005.175.041a.5.5 0 0 0-.175-.044m-.36-2.047s.002-.009.005-.013l-.008.013m.015-.023-.008.01s.005-.008.01-.01zm-.7-4.852a1.75 1.75 0 0 0-.909-.473.585.585 0 0 0 0 0c.343.063.66.228.909.473a.9.9 0 0 0 .6.244h.013a.9.9 0 0 1-.609-.244m-.134 5.7.039.031q.02.015.041.028.03.02.059.041c.029.021.049.033.074.049s.049.031.077.046a3 3 0 0 1-.29-.2m-1.644 2.728h-.331q-.088.033-.177.069.088-.035.177-.067h.331a2.545 2.545 0 0 0 0 0m1.331 23.81c-.2-.167-.465-.37-.814-.614-.259-.182-.563-.39-.92-.624s-.67-.432-.93-.583a34.786 34.786 0 0 1 1.85 1.21c.349.244.616.447.814.614q.116.1.2.177a3 3 0 0 0-.2-.18m-.884-10.414a33 33 0 0 0-2.697 1.693c-.768.534-1.5 1.084-2.173 1.641a37 37 0 0 1 2.782-2.053c.8-.527 1.485-.943 2.088-1.279.468-.259.879-.47 1.246-.637-.367.164-.778.375-1.246.634m-.3 7.041.408-.324q-.22.173-.408.326m-.542.442-.213.182q.097-.084.213-.182.184-.152.421-.347-.239.19-.421.344m-1.399-20.471a2.258 2.258 0 0 0 0 0v-.002m-.069 12.875s0-.005.005-.005h-.005m-.752-14.713a1.5 1.5 0 0 1-.8-.059 2.237 2.237 0 0 0 0 0c.257.091.533.111.8.059v-.002m-.339 13.031q.123-.16.218-.337a3 3 0 0 1-.218.337m-.76-11.993q.241.2.509.362a5 5 0 0 1-.511-.36m-.562-14.341v.005q.152-.13.339-.2a1.1 1.1 0 0 0-.337.19m.884-.277q-.096 0-.2.013.104-.007.2-.01.186-.012.365.041a.9.9 0 0 0-.365-.044m-.616 14.369q.138.137.29.259c-.136-.113-.236-.208-.29-.259m-.591-12.148a.1.1 0 0 0 .005-.028l-.008.031m-.7-5.5v.002a.9.9 0 0 1 .434-.026.85.85 0 0 0-.434.023m.7.064q.155.075.293.177A1.4 1.4 0 0 0 12.939 8m-.365 38.955q-.047.04-.105.1.058-.052.105-.1l.026-.026-.026.023m-.226-7.994a2.8 2.8 0 0 1-1.084-.218 2.8 2.8 0 0 0 1.084.218m-.074-15.651a2.3 2.3 0 0 0-.963-.524q-.27-.075-.55-.092c-.062 0-.126-.008-.19-.008q-.048-.001-.1.005a2.7 2.7 0 0 0-.717.116 2.283 2.283 0 0 1-.003 0q.351-.107.717-.116c.033 0 .064-.005.1-.005q.097.002.19.008a2.7 2.7 0 0 1 .763.161c.277.103.531.257.75.455q.048.043.1.09a1 1 0 0 0-.1-.092m-.901-2.633v.003c.244-.167.378-.182.432-.118-.049-.067-.185-.054-.432.116m-1.143 1.605"/><path id="bk" d="m43.09 23.317-.054-.072-.036-.044a11.2 11.2 0 0 0-1.7-1.783 11 11 0 0 0-1.256-.914 7.05 7.05 0 0 0-4.711-1.041 4 4 0 0 0-.5.1l-.126.039a7 7 0 0 0-.159-.593 3.4 3.4 0 0 0-.563-1.119c-.545-.624-.753-1.146-.2-1.058s1.115.935 1.115.935a6.63 6.63 0 0 0-1.474-3.391c-.519-.647.655-1.631 1.1-2.592s1.639-3.118.56-4.1a3.6 3.6 0 0 0-4.069-.337c-1.022.719-1.9 2.078-3.229 1.5a3.53 3.53 0 0 0-3.368.254 5.1 5.1 0 0 1-1.885.891h-.021a5.1 5.1 0 0 1-1.885-.891 3.53 3.53 0 0 0-3.37-.254c-1.328.575-2.207-.783-3.226-1.5a3.6 3.6 0 0 0-4.069.337c-1.079.981.116 3.142.56 4.1s1.618 1.945 1.1 2.592a6.63 6.63 0 0 0-1.474 3.391s.557-.848 1.115-.935.349.434-.2 1.058a6.1 6.1 0 0 0-.907 3.486q.002.135.008.27v.059c.008.193.021.383.046.578h.005a6 6 0 0 1 .534-.96q.159-.236.36-.437a1.6 1.6 0 0 1 .244-.211c.247-.17.383-.182.432-.116a.24.24 0 0 1 .005.223 1 1 0 0 1-.067.152 1.352 1.352 0 0 1-.244.313.3.3 0 0 0-.046.046c-.015.018-.033.033-.049.054a2.3 2.3 0 0 0-.256.37 3.4 3.4 0 0 0-.254.552q-.15-.012-.3-.013h-.01q-.068.002-.141.008c-.069 0-.141.008-.208.013v.008-.008a3 3 0 0 0-.5.1 2.8 2.8 0 0 0-1.048.557c.105.1.2.2.3.293.234-.193.504-.338.794-.426q.351-.107.717-.116c.033 0 .064-.005.1-.005q.097.002.19.008a2.7 2.7 0 0 1 .763.161c.277.103.531.257.75.455l.1.092q.095.093.175.2.21.268.342.583c.147.363.222.751.218 1.143v10.762a.75.75 0 0 1-.478.704.74.74 0 0 1-.637-.039.759.759 0 0 1-.396-.665v-10.83a1.18 1.18 0 0 0-.257-.812.9.9 0 0 0-.447-.259 1 1 0 0 0-.131-.026 1 1 0 0 0-.188-.015q-.05.002-.1.008a.96.96 0 0 0-.6.234q.138.225.2.48l.139.814-.647-.4v10.9a2.76 2.76 0 0 0 1.018 2.142q.156.127.326.234.174.104.36.185a2.8 2.8 0 0 0 2.525-.185 3 3 0 0 0 .526-.414 2 2 0 0 0 .262-.3 2.75 2.75 0 0 0 .555-1.662v-9.621q.297.085.606.087a2.4 2.4 0 0 0 .732-.134q.051-.015.1-.033l.275-.1.18-.069c.059-.023.118-.049.177-.069h.331a2.55 2.55 0 0 1 1.51.444l.015.026c.385.629.637 1.433.989 2.15 0 .049.005.1.005.146v.385a2.68 2.68 0 0 1-.634 1.9 2.1 2.1 0 0 1-.645.47l1.279 3.589 1.22-5.058c.383.206.813.309 1.248.3.033 0 .062-.005.092-.005l-.352 1.665h1.59l-.144-.683-.237-1.146a2.2 2.2 0 0 0 .809-.514q.201-.2.362-.434l.216.912 1.176 4.965 2.637-7.639h-2.382V26.33q.053-.046.105-.085h1.444c.462.219.958.356 1.467.406a2.73 2.73 0 0 0 1.338-.4l-.3.873-2.345 6.766h2.6v1.462h-6.1l-.388-1.78h-2.1l-.021.023-.4 1.754h-3.19l-1.028-3.219h-.724l-.013 4.041a4.28 4.28 0 0 1-1.168 2.944q-.054.057-.108.11c-.054.053-.072.072-.11.105a3 3 0 0 1-.234.2q-.15.12-.311.226a4.287 4.287 0 0 1-2.36.706c-.433 0-.864-.068-1.277-.2a4.3 4.3 0 0 1-1.762-1.066 4 4 0 0 1-.406-.468l-.105-.146a4 4 0 0 1-.193-.306 3 3 0 0 1-.164-.321 4.252 4.252 0 0 1-.393-1.791v-8.47l-1.056-.652a6.4 6.4 0 0 0-.935-.4 3 3 0 0 0-.013.257v2.415l.532 1.056-.532-.277v7.66a4.723 4.723 0 0 0 4.716 4.716c.062 0 .123-.008.185-.01a4.65 4.65 0 0 0 1.844-.455q-.6.49-1.143.968l-.357.319a36 36 0 0 0-2.109 2.078q-.212.23-.406.442a38 38 0 0 0-.727.835c-.357.426-.619.763-.783.984-1.207 1.6-1.438 2-1.148 2.576.135.219.319.405.537.542q.203.364.514.64.168.184.365.337c.164.124.364.19.57.19.539 0 .789-.375 1.027-.737.1-.154.241-.365.424-.611.4-.537.773-1.035 1.128-1.5q.347-.466.67-.884c.024.233 0 .468-.072.691-.033.139-.074.311-.123.534l-.018.08-.013.064c-.5 2.219-.616 2.993-.421 3.506.208.537.591 1.541 1.513 1.541h.026c.439-.016.823-.299.968-.714q.15-.433.223-.886.049-.257.105-.575c.056-.318.074-.411.116-.624.077-.406.159-.819.259-1.2l.013-.046c.051-.2.121-.468.18-.65a.8.8 0 0 1 .074-.2.2.2 0 0 1 .044-.033l.015-.013c.041-.033.152-.116.2-.152.1-.074.17-.134.231-.18a8.7 8.7 0 0 0 2.453 1.377c.64.221 1.153.45 1.536.619.304.175.643.283.992.316a.95.95 0 0 0 .7-.306c.026-.028.054-.051.077-.082a.97.97 0 0 0 .139-.876 1.2 1.2 0 0 0-.144-.313 4 4 0 0 0-.108-.157c.041 0 .085-.015.126-.021a2 2 0 0 0 .236-.044c.052.646.207 1.279.46 1.875a6.3 6.3 0 0 0 1.092 1.747l.807.848-.29-1.135a11.7 11.7 0 0 1-.275-3.149 7 7 0 0 1 .105-.863c.188.073.387.11.588.11h.015a2.05 2.05 0 0 0 1.218-.455 26 26 0 0 0 2.5-2.291l.049-.051q.166.036.334.036c.454-.027.899-.14 1.31-.334a7.9 7.9 0 0 0 2.332-1.608q.175.042.354.044.115 0 .229-.018a5.4 5.4 0 0 0 2.489-1.523q.274-.247.521-.491h.01c.036 0 .072.005.113.005a4.3 4.3 0 0 0 2.561-1.32c.105-.1.206-.193.3-.29h.005q.143.033.29.033a3.36 3.36 0 0 0 1.767-.786c.177-.121.393-.27.6-.429h.018a.96.96 0 0 0 .741-.336q.17.102.367.136.093.017.188.018.213-.006.411-.082.208-.073.4-.18.374-.207.709-.475.267-.206.491-.457a1.5 1.5 0 0 0 .259-.429.94.94 0 0 0 .126-1.012l-.113-.234-.193-.193a1.1 1.1 0 0 0-.252-.388l-.185-.185c-.026-.026-.054-.044-.08-.067l-.054-.046a1.2 1.2 0 0 0-.5-.244q.257-.34.5-.691v-.046l.026.008q.217-.322.421-.655a11.2 11.2 0 0 0 1.379-3.4v-.008l.018-.09.008-.054a9.17 9.17 0 0 0-1.765-7.375m-7.56-2.951q.12-.016.267-.028a6.17 6.17 0 0 1 3.761.948 10.2 10.2 0 0 1 2.339 2.014q.237.273.457.565a3.4 3.4 0 0 0-.457-.283 3 3 0 0 0-.6-.223 3.72 3.72 0 0 0-2.173.19 8 8 0 0 0-2.327 1.423q-.051.046-.087.08-.002-.041-.008-.08a8.6 8.6 0 0 0-.8-3.211c-.1-.2-.193-.383-.283-.539a5.3 5.3 0 0 0-.524-.765l-.005-.005q.218-.056.442-.085m-2.98 11.775-.2-.637-1.408-4.387-.28-.873h1.57l.545 1.947.622 2.23.128.455.159-.568.113-.393 1.045-3.671h1.562l-1.567 4.834-.565 1.734v2.543h-1.51v-2.539zm-2.047-20.836a.05.05 0 0 1 .021-.021.1.1 0 0 1 .028-.015.9.9 0 0 1 .365-.044q.096 0 .2.013.178.014.347.074.185.065.336.19a1.35 1.35 0 0 0-.378-.462q-.06-.044-.126-.085a1.6 1.6 0 0 1-.334-.265 1.007 1.007 0 0 1-.157-1.367q.308-.47.7-.873.031-.032.062-.059.06-.06.126-.113a2 2 0 0 1 .128-.1 1.4 1.4 0 0 1 .393-.218q.083-.03.17-.046a.85.85 0 0 1 .434.023c.351.098.676.275.95.516.393.38.565.986-.018 1.983-.94 1.6-1.754 2.24-1.657 2.9q.006.04.018.077l.008.031-.026-.051c-.013-.025-.023-.039-.036-.062l-.023-.044-.052-.096q-.016-.026-.031-.057-.035-.053-.074-.118l-.085-.131a8 8 0 0 0-.444-.629 8 8 0 0 0-.28-.329 5 5 0 0 0-.483-.462.2.2 0 0 1-.039-.039c-.051-.049-.059-.087-.039-.116m-19.198-.873c-.583-1-.411-1.6-.018-1.983a2.4 2.4 0 0 1 .95-.516.85.85 0 0 1 .434-.023 1 1 0 0 1 .27.087q.157.07.293.177.066.046.128.1.065.053.126.113.031.028.062.059.392.403.7.873a1.007 1.007 0 0 1-.157 1.367q-.151.154-.337.265a1 1 0 0 0-.067.041l-.059.044a1 1 0 0 0-.105.092 1.2 1.2 0 0 0-.27.37q.151-.125.337-.19.169-.06.347-.074.104-.01.2-.013a.9.9 0 0 1 .365.044q.015.004.028.015a.05.05 0 0 1 .021.021c.018.028.013.067-.039.116a.2.2 0 0 1-.039.039q-.174.15-.331.3l-.152.162q-.149.162-.283.329a9 9 0 0 0-.444.629q-.045.07-.085.131l-.072.118a.3.3 0 0 1-.033.057 1 1 0 0 1-.054.092c-.005.015-.015.031-.021.044s-.026.044-.036.062-.021.044-.026.051l.008-.031a1 1 0 0 0 .018-.077c.1-.658-.719-1.295-1.657-2.9m3.023 15.775-.8.8v-1.413c.054.051.154.146.29.259q.244.197.511.36zm1.099-.93a1 1 0 0 1-.087.077 1 1 0 0 1-.077.057 1.55 1.55 0 0 1-.519.223 2 2 0 0 1-.265.044 2 2 0 0 1-.46-.01.6.6 0 0 1-.134-.021q-.077-.014-.159-.033a1 1 0 0 1-.116-.033q-.043-.01-.085-.026v-.234a3.4 3.4 0 0 0-.173-1.073c.217.224.479.399.768.516.257.091.533.111.8.059q.075-.015.152-.021a.8.8 0 0 1 .319.015.2.2 0 0 1 .051.018.24.24 0 0 1 .082.057c.1.1.054.249-.092.4m5.143 1.877a3.1 3.1 0 0 1-.509-1.076l.085.092q.043.046.09.087c.047.041.057.054.087.08l.067.051.046.031q.061.197.1.4l.051.316.008.049-.026-.031m.321-.527-.087.285.015-.1c0-.008.013-.077.028-.2q.02.006.044.013zm3.291.891c0 .05-.02.099-.054.136a.4.4 0 0 1-.057.054.26.26 0 0 1-.149.072.1.1 0 0 1-.031-.015l-.077-.054-.08.046c-.338.18-.717.269-1.1.259a2.5 2.5 0 0 1-.789-.121 1.5 1.5 0 0 1-.4-.2l-.113-.082-.085.11a.1.1 0 0 1-.018.018.1.1 0 0 1-.049.033.27.27 0 0 1-.149-.072.4.4 0 0 1-.057-.054.18.18 0 0 1-.054-.154l.008-.023c.039-.134.141-.478.239-.8l.039-.128.023.136q.072.357.108.719v.051l.031.036q.015.02.033.036.077.069.164.121.142.084.3.136.117.042.239.067.258.052.521.051c.069 0 .139 0 .2-.008.304-.013.601-.097.866-.247l.064-.041.015-.008-.013-.09a.5.5 0 0 1-.005-.1c0-.108.051-.416.108-.73l.023-.128.036.123.231.773v.008l.008.028v.013l.005.01zm-2.646-.8q.285.07.55.2c.127.063.266.1.408.108h.057a.9.9 0 0 0 .285-.057c.039-.015.074-.031.116-.046q.086-.035.182-.08.213-.097.442-.139c-.049.288-.1.57-.1.688v.049a1.9 1.9 0 0 1-.84.17q-.15 0-.3-.021c-.031 0-.062-.008-.09-.013a1.7 1.7 0 0 1-.306-.077 1 1 0 0 1-.316-.167 7 7 0 0 0-.092-.611m2.679-.113.054-.018c.015.131.028.208.028.216l.026.159c-.033-.113-.072-.236-.108-.357m.247-1.212-.008-.2-.185.069a5 5 0 0 1-.419.131l-.026.008a4.7 4.7 0 0 1-1.21.164h-.1a4.7 4.7 0 0 1-1.253-.175c-.167-.046-.308-.1-.411-.134l-.185-.069-.01.2q-.015.366-.039.647l-.085-.244a3.6 3.6 0 0 1-.265-1.007q0-.022.015-.039.008-.014.036-.015h.033q.092.005.175.044.039.015.072.039a.2.2 0 0 1 .069.057l.018.085.087.023c.252.069.627.162 1 .229q.36.1.732.11h.026q.268 0 .529-.064.647-.1 1.279-.272l.08-.015.021-.077a.1.1 0 0 1 .015-.021.2.2 0 0 1 .046-.036.3.3 0 0 1 .062-.036.2.2 0 0 1 .049-.021.36.36 0 0 1 .18-.031q.02 0 .036.015.012.016.013.036a3.6 3.6 0 0 1-.262 1l-.082.236c-.015-.182-.028-.4-.039-.632m.064 1.744-.01-.039q.01-.016.021-.031zm.01-.072.044-.262a3 3 0 0 1 .118-.452q.08-.062.152-.134.072-.069.134-.146a3.3 3.3 0 0 1-.447 1m3.016-5.091q-.3.04-.6.092-.127.022-.249.049l-.262.059c-.062.015-.123.026-.185.044-.028.005-.051.013-.08.018-.349.118-.914.311-1.1.4a.13.13 0 0 0-.085-.031.139.139 0 1 0 0 .278.14.14 0 0 0 .139-.139.13.13 0 0 0-.021-.069c.159-.023.537-.108 1.251-.293a3 3 0 0 1-.236.447q-.037.061-.082.123a2 2 0 0 1-.152.203 2 2 0 0 1-.126.152l-.026.031q-.063.07-.126.131a3 3 0 0 1-.2.188 5 5 0 0 1-.347.272q-.025.014-.049.031a4 4 0 0 0 .648-.331q.058-.038.108-.074.105-.07.2-.152.059-.053.113-.105a2 2 0 0 0 .329-.406q.026-.043.049-.082a2 2 0 0 0 .167-.388l.031-.108.254-.057a2.4 2.4 0 0 1-.876 1.423c-.426.323-.904.57-1.413.732a1.9 1.9 0 0 0-.1-1.916 2.23 2.23 0 0 0-2-.712h-.005a2.23 2.23 0 0 0-2 .712 1.9 1.9 0 0 0-.1 1.916 4.7 4.7 0 0 1-1.415-.732 2.4 2.4 0 0 1-.873-1.423c.074.015.152.033.226.051q.012.056.031.11.016.05.036.105a2 2 0 0 0 .247.465q.12.171.27.316a3 3 0 0 0 .275.228l-.038-.04a3 3 0 0 0 .213.154l.077.049q.081.05.167.092c.086.042.087.046.134.067l.092.041q.07.035.146.062a3.6 3.6 0 0 1-.663-.56c-.028-.028-.057-.062-.085-.092s-.062-.069-.09-.105-.077-.092-.113-.144a1 1 0 0 1-.049-.067 1 1 0 0 1-.051-.069c-.033-.046-.064-.1-.1-.146a2 2 0 0 1-.116-.211 3 3 0 0 1-.087-.185h.005q.656.188 1.328.306l.008-.013.008-.01c-.134-.08-.76-.293-1.138-.421-.026-.005-.049-.013-.077-.018-.072-.021-.141-.033-.213-.051q-.132-.032-.259-.059c-.127-.027-.149-.028-.223-.041q-.272-.05-.539-.085a13 13 0 0 0-4.146.167q.015.019.031.041c.237.338.564.601.945.76-.194.07-.404.084-.606.039a3.369 3.369 0 0 1-.352-.092l-.216-.077a6 6 0 0 1-.357-.146 1.2 1.2 0 0 0-.843-.067 3 3 0 0 0-.563-.229q.104-.275.239-.537.042-.08.087-.154.067-.125.139-.239a4.3 4.3 0 0 1 1.434-1.44 2.01 2.01 0 0 0-2.4.419 4.53 4.53 0 0 1 4.154-2.438c-1.015-1.194-1.721-.966-1.721-.966a3.28 3.28 0 0 1 3.386-.709c.319.103.667.076.966-.077 0 0-.288-.064-.9-.876a2.46 2.46 0 0 0-1.883-.76 3.7 3.7 0 0 1 3.388-.039c.688.393.956.29.956.29a3.9 3.9 0 0 0-1.8-2 4.77 4.77 0 0 1 3.727 2.194 2.5 2.5 0 0 0-.529-2c1.685 1.079 1.336 3.794 1.117 4.393s-.316-.3-.809-1.043a2.53 2.53 0 0 0-2.052-1.117s.509.1 1.1 1.056a2.34 2.34 0 0 0-1.814.013c-.65.288-1.241 1.207-1.911 1.67a12.2 12.2 0 0 1 3.183 1.313 1.534 1.534 0 0 1 1.824.509c.527.634.907.765 1.192.765h.023c.288 0 .668-.131 1.194-.765a1.53 1.53 0 0 1 1.824-.509 12.2 12.2 0 0 1 3.177-1.323c-.67-.462-1.261-1.382-1.911-1.67a2.34 2.34 0 0 0-1.814-.013c.588-.953 1.094-1.056 1.094-1.056a2.54 2.54 0 0 0-2.052 1.117c-.493.74-.586 1.639-.807 1.043s-.568-3.314 1.117-4.393a2.5 2.5 0 0 0-.529 2 4.77 4.77 0 0 1 3.727-2.194 3.9 3.9 0 0 0-1.8 2s.267.1.956-.29a3.7 3.7 0 0 1 3.386.039 2.46 2.46 0 0 0-1.88.76c-.609.812-.9.876-.9.876.3.153.648.18.968.077a3.28 3.28 0 0 1 3.386.709s-.706-.229-1.724.966a4.49 4.49 0 0 1 3.797 1.881q.197.265.357.555a2.2 2.2 0 0 0-.658-.468 1.85 1.85 0 0 0-1-.172c-.258.027-.51.103-.74.223a4.7 4.7 0 0 1 1.968 2.56l.008.023c.057.17.11.344.157.534a1.46 1.46 0 0 0-1.644-.457c-.938.419-1.274.367-1.534.277.381-.159.708-.422.945-.76q.016-.022.031-.041a13 13 0 0 0-4.082-.175m-7.632-3.922a1 1 0 0 1-.113.023.4.4 0 0 1-.1.018 1 1 0 0 1-.11.01 1.4 1.4 0 0 1-.529-.064 1.6 1.6 0 0 1-.275-.116 1.3 1.3 0 0 1-.223-.149 1 1 0 0 1-.059-.049 1 1 0 0 1-.064-.064.6.6 0 0 1-.18-.4.6.6 0 0 0 .141.077c.343.063.66.228.909.473a.9.9 0 0 0 .609.244h-.013zm5.2 0a.9.9 0 0 0 .609-.244c.249-.245.565-.41.909-.473a.6.6 0 0 0 .139-.077.6.6 0 0 1-.18.406 1.2 1.2 0 0 1-.347.259 1.6 1.6 0 0 1-.272.116c-.17.056-.35.078-.529.064a1 1 0 0 1-.11-.01.4.4 0 0 1-.1-.018 1 1 0 0 1-.113-.023m5.006 6.751c1.451.259 1.952-1.421 2.746-1.526s1.367 1.058 1.367 1.058a3.34 3.34 0 0 0-.683-3.088 1.04 1.04 0 0 1-.331-.573c-.015-.17.113-.236.457 0 .497.445.888.996 1.143 1.613a9 9 0 0 0 .044-.5c.259.475.464.979.611 1.5q.087.308.157.658.099.509.131 1.025c0 .041.008.082.01.123s0 .1 0 .144q.008.288 0 .581h-1.269l-1.544 1.546-.432-1.552h-1.284q.162-.132.308-.283c-1.729.64-2.885-.989-1.436-.73m-3.1 13.124q.033-.038.069-.074l.054-.046q.28-.246.588-.457h1.693l1.04-1.035q.137-.014.275-.026v1.061h2.353l.532-.532a5 5 0 0 1 .773.426q.029.018.057.036.269.185.509.406.07.065.136.134l.01.01q-.175.151-.36.319a7 7 0 0 0-.362.347q-.122.12-.236.244l-.033-.028-.031-.026a1.43 1.43 0 0 0-.823-.374h-.102a1 1 0 0 0-.131.021q-.053.013-.11.028a2 2 0 0 0-.2.077 3.7 3.7 0 0 0-.634.39 6 6 0 0 0-.452.365 9 9 0 0 0-.508.476l-.087.087-.231.239q-.102.108-.17.185a1 1 0 0 0-.064.072 5 5 0 0 0-.2-.164q-.007.001-.01-.005l-.054-.041a3 3 0 0 0-.39-.272 1.7 1.7 0 0 0-.539-.213 1.273 1.273 0 0 0-1.128.286 2 2 0 0 0-.164.154q-.206.215-.367.465l-.072-.077a1.3 1.3 0 0 0-.3-.231 1.46 1.46 0 0 0-.732-.193 2.2 2.2 0 0 0-1.043.275 2 2 0 0 0-.326-.182q.123-.171.257-.342c.134-.171.175-.231.267-.347a23 23 0 0 1 1.241-1.436m-12.063 2.29q.092-.089.177-.177l.085-.085.139-.139q.034-.033.064-.064c.03-.031.041-.039.059-.059a1 1 0 0 1 .057-.054.3.3 0 0 1 .046-.046.3.3 0 0 1 .044-.044.1.1 0 0 1 .033-.033s0-.005.005 0l.036-.039q.054-.053.1-.105l.046-.054q.057-.06.11-.126l.039-.046.1-.126a1 1 0 0 0 .044-.059q.043-.058.082-.116a.3.3 0 0 0 .033-.049q.054-.073.1-.154l.039-.064q.035-.058.067-.116.017-.031.033-.062c.016-.031.013-.026.021-.036q.033-.065.064-.128l.031-.064c.018-.041.039-.08.054-.121l.031-.069.069-.172q.01-.034.021-.064.024-.065.044-.128.015-.039.026-.077l.044-.154.008-.028h3.506l.84-.848.93-.935.241 1.11.146.673h3.743c-.087.1-.175.19-.265.285s-.177.193-.262.293l-.226.267q-.347.411-.676.835c-.2.254-.388.514-.573.773q-.117-.009-.236-.01c-.119-.001-.139 0-.208.008a2 2 0 0 0-.031-.383 2.27 2.27 0 0 0-.673-1.22l-.069-.069q-.027-.028-.054-.051l-.1-.1q-.026-.027-.049-.046c-.041-.039-.08-.072-.108-.1a2.5 2.5 0 0 0-.522-.316 2 2 0 0 0-.267-.09 2.6 2.6 0 0 0-.398-.072 2 2 0 0 0-.37-.005 6.1 6.1 0 0 0-2.083.575 7 7 0 0 0-.239.108q-.165.072-.334.159-.66.324-1.428.778-.258.149-.527.319l-.005.005-.262.162q-.211.13-.432.272-.189.122-.385.252c-.1.062-.188.123-.28.185q-.278.189-.545.378-.136.095-.267.19c.157-.162.339-.344.516-.521m3.327 10.047q-.166-.075-.352-.149l-.3-.121-.321-.118-.229-.08a6.5 6.5 0 0 1-1.03-.465 8 8 0 0 1-.293-.17l-.154-.1-.223-.149c-.211-.144-.39-.28-.539-.393l-.223-.164a.6.6 0 0 0-.216-.113c-.244-.028-.706.372-1.027.619a2 2 0 0 0-.211.167c-.137.16-.232.351-.277.557a16 16 0 0 0-.315 1.21c-.105.465-.193.945-.27 1.377q-.041.235-.082.447-.066.45-.2.886a.3.3 0 0 1-.062.1c-.049.054-.108.039-.164-.015a2.4 2.4 0 0 1-.383-.719c.01-.937.15-1.868.414-2.767q.04-.184.077-.352c.105-.475.17-.714.2-.891.04-.272.039-.548-.005-.819v-.015c-.05-.351.073-.705.329-.95l.039-.039c.039-.039.074-.069.105-.1l.026-.023a.3.3 0 0 0 .056-.069q.098-.264.164-.539.028-.106.059-.223c.051-.2.105-.414.159-.634.131-.537.257-1.092.3-1.387a.1.1 0 0 0-.005-.064c0-.005-.008-.008-.01-.01q-.05-.022-.211.126a1 1 0 0 0-.1.1c-.437.437-1.254 1.454-2.183 2.661q-.182.235-.367.478-.33.433-.673.881c-.419.557-.843 1.12-1.248 1.665l-.059.08c-.036.049-.069.092-.1.139-.306.421-.47.712-.563.809q-.042.047-.067.028a1 1 0 0 1-.057-.049q-.04-.034-.092-.085-.021-.024-.044-.044c-.157-.162-.342-.4-.313-.586a.47.47 0 0 0-.054-.354.1.1 0 0 0-.026-.026.1.1 0 0 0-.121-.01.3.3 0 0 0-.067.046c-.072.062-.164.134-.185.1-.041-.049.139-.4 1.058-1.618q.371-.495.868-1.079.054-.06.108-.126a1 1 0 0 1 .051-.054q.014-.016.028-.033a30.053 30.053 0 0 1 1.788-1.9 27 27 0 0 1 .922-.876q.4-.37.832-.74.324-.279.663-.557a34 34 0 0 1 2.782-2.055c.8-.527 1.485-.943 2.088-1.279.468-.259.879-.47 1.246-.634.123-.057.239-.105.352-.152q.223-.093.421-.162.267-.096.542-.162.14-.036.283-.057.084-.018.17-.023l.128-.01c.212-.02.425.011.622.09q.128.055.241.136.106.077.2.167a1.2 1.2 0 0 1 .411 1.02 13.4 13.4 0 0 1-2.715 3.473c-.342.339-.712.678-1.1 1.015q-.353.302-.735.593c-1.179.9-1.916 1.513-2.366 1.919a1 1 0 0 0-.077.069q-.038.032-.074.067l-.064.062q-.062.058-.113.11-.028.026-.051.051a1.2 1.2 0 0 0-.241.293.08.08 0 0 0 .023.074q.032.031.069.057.048.03.118.072l.167.092.159.087.19.105c.121.069.259.146.414.239.259.152.565.342.93.583s.66.442.92.624c.349.244.616.447.814.614a3 3 0 0 1 .28.26.8.8 0 0 1 .211.3.1.1 0 0 1 0 .054c-.039.087-.408-.11-1.069-.4m-.254-2.589c.005.049.005.1.013.144q.014.106.033.208c0 .015.005.036.008.051l-.3-.2q-.458-.3-.886-.557a.1.1 0 0 1 .026-.023q.097-.084.213-.182c.123-.1.262-.218.421-.344l.121-.1q.189-.152.408-.326a4.5 4.5 0 0 0-.059 1.328m24.516-10.2c.044-.044.08-.074.1-.1s.039-.031.044-.028a.5.5 0 0 1-.067.092.4.4 0 0 0-.069.121.657.657 0 0 1-.128.228l-.041.049-.044.044a1 1 0 0 1-.1.087 4.3 4.3 0 0 1-.748.541q-.107.06-.221.105c-.126.049-.193.049-.236.008l-.021-.023-.023-.033-.021-.042a.4.4 0 0 1-.044-.085.35.35 0 0 1 .054-.259l.036-.069q.117-.19.262-.362c.144-.18.311-.367.452-.519.054-.059.1-.11.146-.157a.1.1 0 0 1 .021-.018l.013-.015c.1-.108.121-.157.1-.175s-.075 0-.131.021h-.005a3.57 3.57 0 0 0-.293.126q-.148.072-.306.157c-.158.085-.211.121-.319.193q-.113.073-.218.157-.055.041-.105.085c-.05.044-.064.059-.1.09a2.116 2.116 0 0 0-.241.285 3.5 3.5 0 0 0-.393.794l-.028.054a.03.03 0 0 1-.018.01.05.05 0 0 1-.039 0l-.023-.013a.4.4 0 0 1-.085-.072q-.03-.03-.062-.059a4 4 0 0 1-.393.342l-.123.09c-.144.108-.3.211-.444.313-.356.3-.777.512-1.23.619h-.015a.2.2 0 0 1-.064-.005 1 1 0 0 1-.111-.049.586.586 0 0 1-.251-.326 4.6 4.6 0 0 1-.437.534c-.051.057-.105.11-.162.167s-.118.118-.182.177a7 7 0 0 1-.637.511 3 3 0 0 1-1.174.555h-.013a.578.578 0 0 1-.493-.133q-.102.107-.221.226a10 10 0 0 1-.4.388q-.13.124-.27.252a6.7 6.7 0 0 1-1.605 1.159 2 2 0 0 1-.254.1q-.046.014-.087.023a1 1 0 0 1-.074.018.6.6 0 0 1-.234-.024 1 1 0 0 1-.367-.193l-.074.072c-.216.211-.5.48-.827.76a6.1 6.1 0 0 1-1.593 1.022c-.735.3-1.025.311-1.218.211a.9.9 0 0 1-.241-.195q-.041.038-.082.08c-.041.042-.059.054-.087.085l-.092.092a8 8 0 0 0-.2.2q-.055.05-.105.105c-.05.055-.072.072-.108.11s-.074.075-.113.113l-.18.177c-.213.211-.437.432-.67.652s-.468.439-.706.645a11 11 0 0 1-.599.485q-.15.115-.324.19a1 1 0 0 1-.365.08.75.75 0 0 1-.334-.085.8.8 0 0 1-.154-.1q-.072-.059-.136-.121a1 1 0 0 1-.136-.157l-.023-.031-.031-.041-.108-.152a1 1 0 0 0-.103-.126q-.006-.008-.013-.013l-.008-.005h-.008a.1.1 0 0 0-.085.026l-.023.021a.1.1 0 0 0-.036.036 10 10 0 0 1-.686.819c-.031.033-.067.067-.1.1s-.074.067-.113.1l-.044.036a1.5 1.5 0 0 1-.324.205 1.207 1.207 0 0 1-.577.128.95.95 0 0 1-.557-.213q-.035-.031-.067-.062a1.3 1.3 0 0 1-.218-.326l-.033-.085a1.7 1.7 0 0 1-.1-.4 3.7 3.7 0 0 1-.013-.812 4.1 4.1 0 0 1 .416-1.41q.418-.83.961-1.585.42-.602.9-1.156.226-.259.452-.491.075-.075.149-.152a11 11 0 0 1 .837-.753c.255-.212.537-.391.837-.532q.113-.042.231-.067a1.87 1.87 0 0 1 1.169.152q.191.086.344.231.06.054.105.121.068.1.152.185a.542.542 0 0 0 .198.118q.109.03.221.046l.062.013.064.015.069.021.072.026a.23.23 0 0 1 .092.062c.108.116-.123.28-.365.6a2.4 2.4 0 0 0-.247.4q-.048.096-.118.223c-.07.127-.1.175-.159.275s-.123.205-.2.316q-.107.166-.221.344c-.306.478-.655 1-.95 1.433l-.488.709c-.285.411-.4.655-.344.714q.039.039.162-.023c.023-.013.046-.023.072-.039s.054-.036.085-.057c.871-.6 1.873-1.279 2.751-1.921a.93.93 0 0 1 0-.552 1.5 1.5 0 0 1 .126-.306q.074-.143.177-.308.101-.165.229-.347c.283-.406.64-.863.989-1.272.2-.234.344-.421.457-.581q.243-.383.542-.724a1 1 0 0 1 .087-.082c.349-.3.85.223 1.012.321a.1.1 0 0 1 .023.018c.059.051.018.123-.1.247l-.036.036q-.04.037-.087.082a20 20 0 0 0-.583.554q-.657.646-1.22 1.374a5.2 5.2 0 0 0-.663 1.069q-.028.067-.049.123a1 1 0 0 0-.031.146.3.3 0 0 0 0 .075l.008.015c.054.067.342-.051.735-.257q.24-.128.519-.288c.279-.16.375-.223.568-.339l.5-.311.2-.126q.196-.128.37-.236.087-.058.164-.108l.062-.039a1.25 1.25 0 0 1 .141-.735c.236-.501.549-.962.927-1.367q.169-.189.334-.354.081-.087.162-.162.13-.129.254-.241c.124-.112.159-.146.236-.211s.149-.126.218-.18c.2-.192.441-.336.706-.419h.01a.3.3 0 0 1 .105.046q.09.057.164.134.02.019.041.041.031.026.057.057l.051.057q.11.119.185.262a.03.03 0 0 1 0 .021s-.005.008-.01.01l-.026.013c-.041.018-.113.031-.216.067a1 1 0 0 0-.116.044 3 3 0 0 0-.17.085 6 6 0 0 0-.2.126q-.034.023-.072.051a1 1 0 0 0-.1.08l-.074.062q-.169.15-.326.3-.456.451-.832.971-.035.048-.067.1c-.27.33-.475.707-.606 1.112l.008.01h.008a.4.4 0 0 0 .157-.046q.05-.026.113-.057l.141-.077a4 4 0 0 0 .159-.092q.107-.062.226-.136l.247-.154q.1-.067.208-.134c.108-.067.141-.1.213-.141l.11-.072.218-.146.218-.149q.111-.075.216-.146c.105-.072.211-.144.308-.216s.193-.136.283-.2a.253.253 0 0 1-.031-.337q.19-.367.426-.706.11-.165.241-.334.091-.11.19-.221.148-.167.308-.326.09-.092.182-.18.183-.178.354-.329l.164-.141q.042-.04.085-.074c.18-.154.316-.262.36-.3q.092-.083.2-.141a.02.02 0 0 1 .015 0h.01c.01 0 .015 0 .021.008a.03.03 0 0 1 .01.013l.01.021q.008.015.023.026a.3.3 0 0 0 .051.039l.039.018.044.015a1 1 0 0 0 .116.028q.049.009.105.018c.209.033.403.13.555.277.05.046.085.106.1.172q.232-.318.506-.6.038-.04.08-.077c.042-.037.057-.051.087-.074q.135-.11.285-.2.233-.143.485-.249a6 6 0 0 1 .378-.154l.049-.021a.2.2 0 0 1 .064-.021.1.1 0 0 1 .026 0 .1.1 0 0 1 .067.005.2.2 0 0 1 .067.041l.033.026.023.018a.3.3 0 0 0 .141.046 1 1 0 0 1 .105.023.47.47 0 0 1 .221.128.3.3 0 0 1 .082.149l.216-.331q.066-.102.128-.193.064-.093.121-.175c.057-.082.077-.11.116-.159s.069-.092.1-.134.064-.082.092-.116.054-.064.08-.092c.046-.054.082-.1.11-.123q.007-.009.013-.01a.02.02 0 0 1 .01-.013c.033-.036.11.015.18.08q.062.057.113.123l.015.028q0 .009-.015.026a1 1 0 0 1-.057.049l-.057.044c-.049.039-.1.077-.134.105l-.015.015a.02.02 0 0 0-.013.015s-.005 0-.005.005v.005a.2.2 0 0 0 .049-.015l.036-.015c.039-.021.1-.044.162-.077l.033-.013q.084-.04.159-.069c.028-.013.062-.028.09-.039q.1-.036.182-.057.083-.024.167-.036.08-.014.159-.018a.3.3 0 0 1 .146.031.3.3 0 0 1 .113.085c.008 0 .013.01.018.015.005 0 .008 0 .01.008.041.046.069.141-.139.411l-.072.087a9 9 0 0 1-.2.234l-.033.036c-.216.239-.452.483-.537.6a1 1 0 0 0-.062.1v.028c.015.01.092-.031.234-.108l.051-.031.067-.039.077-.046q.08-.051.17-.11c.09-.059.146-.1.221-.146q.232-.154.444-.337m.439-4.321c-.105.2-.216.406-.339.609a16 16 0 0 1-.647.979c-.041.054-.077.11-.118.164-.136.188-.277.367-.421.545a1 1 0 0 0-.177-.036 1 1 0 0 0-.11-.01.95.95 0 0 0-.7.306l-.044.046a1.86 1.86 0 0 0-.108-.989 2 2 0 0 0-.324-.537c-.76-.93-2.4-1.492-4.423-1.343-.1.008-.193.018-.29.028q-.3.032-.6.082v-.123l.853-2.63a7.5 7.5 0 0 1 1.224-.98 6.5 6.5 0 0 1 4.542-1q.17.032.334.069.134.035.265.077c.396.12.769.308 1.1.557.54.386.881.992.93 1.654a9.8 9.8 0 0 1-.93 2.517"/><path id="bl" d="M39.123 23.549a8 8 0 0 0-2.327 1.423q-.051.046-.087.08-.002-.041-.008-.08a8.6 8.6 0 0 0-.8-3.211c-.1-.2-.193-.383-.283-.539a5.3 5.3 0 0 0-.524-.765c.146.082.311.18.485.283q.139.088.29.18a17 17 0 0 1 3.255 2.63" class="ca"/><path id="bm" d="M43.93 30.638a9.8 9.8 0 0 1-.93 2.517c-.105.2-.216.406-.339.609a16 16 0 0 1-.647.979c-.041.054-.077.11-.118.164-.136.188-.277.367-.421.545a1 1 0 0 0-.177-.036 1 1 0 0 0-.11-.01.95.95 0 0 0-.7.306l-.044.046a1.86 1.86 0 0 0-.108-.989 2 2 0 0 0-.324-.537 8.4 8.4 0 0 0 1.112-1.993q.095-.244.175-.48a7.4 7.4 0 0 0 .334-3.409q.134.035.265.077c.396.12.769.308 1.1.557.54.386.881.992.93 1.654" class="cb"/><path id="bn" d="M42.353 23.865a3.4 3.4 0 0 0-.457-.283 3 3 0 0 0-.6-.223 3.72 3.72 0 0 0-2.173.19 17 17 0 0 0-3.255-2.63c-.1-.062-.2-.121-.29-.18-.175-.1-.339-.2-.485-.283l-.005-.005q.218-.056.442-.085.12-.016.267-.028a6.17 6.17 0 0 1 3.761.948 10.2 10.2 0 0 1 2.339 2.014q.237.273.457.565" class="cb"/><path id="bo" d="M36.728 39.095a3 3 0 0 1-.3.5 5.2 5.2 0 0 1-2.055 1.562c-.09.023.074-.3.331-.676q.137-.203.293-.408c.214-.297.475-.558.773-.771a1 1 0 0 1 .123-.067c.123-.041.149-.092.141-.193s.308-.257.46-.285a.223.223 0 0 1 .231.339"/><path id="bp" d="M18.104 46.351a4.5 4.5 0 0 0-.059 1.328c.005.049.005.1.013.144q.014.106.033.208c0 .015.005.036.008.051l-.3-.2q-.459-.3-.884-.557a.1.1 0 0 1 .026-.023q.097-.084.213-.182c.123-.1.262-.218.421-.344l.121-.1q.189-.152.408-.326Z" class="ca"/><path id="bq" d="M35.131 37.837q-.175.15-.357.321c-.182.171-.244.226-.362.347q-.122.12-.236.244l-.033-.026-.031-.028a1.43 1.43 0 0 0-.824-.38h-.103a.5.5 0 0 0-.131.021q-.053.013-.11.028a2 2 0 0 0-.2.077 3.6 3.6 0 0 0-.634.388q-.116.088-.229.18a8.52 8.52 0 0 0-.731.664 9.28 9.28 0 0 0-.318.326q-.102.108-.17.185a1 1 0 0 0-.064.072 2 2 0 0 0-.2-.162l-.01-.008-.054-.041a3 3 0 0 0-.39-.272 1.7 1.7 0 0 0-.539-.213 1.273 1.273 0 0 0-1.128.286 1 1 0 0 0-.087.08 3.102 3.102 0 0 0-.444.542l-.072-.077a1.3 1.3 0 0 0-.3-.231 1.4 1.4 0 0 0-.354-.146 1.6 1.6 0 0 0-.378-.049 2.2 2.2 0 0 0-1.043.275 2 2 0 0 0-.324-.182q.123-.171.257-.342c.134-.171.175-.231.267-.347a23 23 0 0 1 1.31-1.51l.054-.046q.28-.246.588-.457h1.693l1.043-1.035q.137-.014.275-.026v1.061h2.353l.532-.532a5 5 0 0 1 .773.426q.029.018.057.036.269.185.509.406.07.065.136.134l.01.01" class="ca"/><path id="br" d="m26.33 37.354-.262.285q-.135.143-.262.293c-.077.087-.149.177-.226.267q-.347.412-.676.835c-.2.254-.388.514-.573.773q-.117-.009-.236-.01c-.119-.001-.139 0-.208.008a2 2 0 0 0-.031-.383 2.27 2.27 0 0 0-.673-1.22l-.069-.067c-.023-.021-.036-.036-.054-.051a1 1 0 0 0-.1-.1q-.026-.027-.049-.046c-.041-.039-.08-.072-.108-.1a2.5 2.5 0 0 0-.521-.313 2 2 0 0 0-.267-.09 2.6 2.6 0 0 0-.398-.072 2 2 0 0 0-.37-.005 6.1 6.1 0 0 0-2.083.575 7 7 0 0 0-.239.108q-.165.072-.334.159-.66.324-1.428.778-.258.149-.527.319h-.005l-.262.162q-.211.13-.432.272-.189.121-.385.252c-.1.062-.188.123-.28.188q-.278.184-.545.378-.136.095-.267.19c.157-.162.339-.344.516-.521q.092-.088.177-.177l.085-.085.139-.139q.034-.033.064-.064c.03-.031.041-.039.059-.059s.039-.036.057-.054l.09-.09.033-.033s0-.005.005 0l.036-.039q.054-.053.1-.105l.046-.054q.057-.06.11-.126l.039-.046.1-.126a1 1 0 0 0 .044-.059q.043-.058.082-.116a.4.4 0 0 0 .033-.049q.054-.073.1-.154l.039-.064q.035-.058.067-.116.017-.031.033-.062c.016-.031.013-.026.021-.036q.033-.065.064-.128l.031-.064c.018-.041.039-.08.054-.121l.031-.069.069-.172q.01-.034.021-.064.024-.065.044-.128.015-.038.026-.077l.044-.154.008-.028h3.506l.84-.848.93-.935.241 1.11.146.673z" class="ca"/><path id="bs" d="M22.201 38.827a2 2 0 0 0-.2-.167 1.3 1.3 0 0 0-.241-.136 1.33 1.33 0 0 0-.622-.09q-.06.001-.128.01a1 1 0 0 0-.17.023q-.143.021-.283.057a5 5 0 0 0-.542.162 7 7 0 0 0-.421.162c-.113.046-.229.1-.352.152-.367.164-.778.375-1.246.634a34 34 0 0 0-2.697 1.693c-.768.534-1.5 1.084-2.173 1.641q-.339.279-.663.557a30 30 0 0 0-1.071.961q-.355.329-.683.655a33 33 0 0 0-1.246 1.289c-.177.2-.349.388-.511.575a.1.1 0 0 0-.031.036q-.014.017-.028.033c-.057.072-.1.136-.146.193l-.013-.01q-.498.584-.868 1.079c-.92 1.223-1.1 1.57-1.058 1.618.023.026.116-.044.185-.105a.4.4 0 0 1 .067-.044.1.1 0 0 1 .121.01q.017.01.026.026a.47.47 0 0 1 .054.354c-.028.188.157.424.313.586q.021.02.044.044c.033.033.067.062.092.085l.057.046c.015.013.039 0 .067-.026.092-.1.257-.388.563-.809q.046-.067.1-.139.032-.04.059-.08c.406-.545.83-1.107 1.248-1.665q.339-.45.673-.881.186-.243.367-.478c.93-1.207 1.747-2.225 2.183-2.661l.1-.1q.159-.15.211-.126a.01.01 0 0 1 .01.01.1.1 0 0 1 .005.064c-.041.3-.167.85-.3 1.387-.054.221-.108.439-.159.634l-.059.223a5 5 0 0 1-.164.539.4.4 0 0 1-.056.069l-.026.023q-.047.04-.105.1l-.039.039a1.1 1.1 0 0 0-.329.95v.015c.044.271.045.547.005.819-.033.177-.1.416-.2.891-.023.11-.051.231-.077.352-.264.899-.404 1.83-.414 2.767.085.26.215.503.383.719.057.051.116.064.164.015a.3.3 0 0 0 .062-.1q.134-.435.2-.886.041-.211.082-.447a30 30 0 0 1 .38-1.847c.085-.324.149-.56.205-.74.045-.206.14-.397.277-.557a2 2 0 0 1 .211-.167c.321-.247.783-.647 1.027-.619a.6.6 0 0 1 .216.113q.097.069.223.164c.149.113.329.249.539.4l.223.149.154.1q.139.085.293.17.495.274 1.03.462.116.04.229.082l.321.118.3.121q.185.076.352.149c.66.285 1.03.483 1.069.4a.1.1 0 0 0 0-.054.8.8 0 0 0-.211-.3 2.944 2.944 0 0 0-.28-.26c-.2-.167-.465-.37-.814-.614-.259-.182-.563-.39-.92-.624s-.67-.432-.93-.583q-.232-.137-.414-.239-.101-.059-.19-.105c-.089-.046-.113-.062-.159-.087l-.167-.092q-.07-.041-.118-.072a.5.5 0 0 1-.069-.057.08.08 0 0 1-.023-.074 1.2 1.2 0 0 1 .241-.293 1 1 0 0 1 .051-.051q.05-.054.113-.11l.064-.062q.038-.035.074-.067c.036-.032.049-.046.077-.072.45-.406 1.187-1.017 2.366-1.919q.382-.29.735-.591a19 19 0 0 0 1.1-1.015c1.09-1 2.007-2.174 2.715-3.473a1.2 1.2 0 0 0-.411-1.02m-2.985 2.867a23 23 0 0 1-3.717 3.653 34 34 0 0 1-1.824 1.4c-.213.144.3-1.2.473-2.034.061-.485.232-.95.5-1.359a12.4 12.4 0 0 1 2.6-2.322 13.2 13.2 0 0 1 3.589-1.767c.188-.018.082.144-1.616 2.43" class="cc"/><path id="bt" d="M20.832 39.266c-1.279.403-2.49.999-3.589 1.767a12.4 12.4 0 0 0-2.6 2.322 3.2 3.2 0 0 0-.5 1.359c-.172.83-.686 2.178-.473 2.034.1-.064.858-.611 1.824-1.4a23 23 0 0 0 3.717-3.653c1.7-2.286 1.8-2.448 1.616-2.43m-4.788 4.387c-.1.09-.205.18-.306.265.118-.136.236-.265.357-.4q.708-.75 1.534-1.369a25 25 0 0 1-1.585 1.5"/><path id="bu" d="M17.629 42.152a25 25 0 0 1-1.585 1.5c-.1.09-.205.18-.306.265.118-.136.236-.265.357-.4q.708-.75 1.534-1.369" class="ca"/><path id="bv" d="M8.888 47.078c-.057.072-.1.136-.146.193l-.013-.01q.054-.06.108-.126a1 1 0 0 1 .051-.054" class="cc"/><path id="bw" d="M31.445 43.512a2 2 0 0 1-.254.1z" class="cc"/><path id="bx" d="m34.503 41.588-.059.028h-.013a1 1 0 0 0 .072-.031" class="cc"/><path id="by" d="M42.708 37.353s-.018.008-.044.028-.059.051-.1.1a4 4 0 0 1-.444.337q-.112.077-.221.146c-.109.069-.116.077-.17.11l-.077.046-.067.039-.051.031c-.141.077-.218.118-.234.108v-.036a1 1 0 0 1 .062-.1c.085-.116.321-.36.537-.6l.033-.036c.074-.082.144-.162.2-.234l.072-.087c.208-.27.18-.365.139-.411q-.001-.008-.01-.008c-.005-.005-.01-.013-.018-.015a.304.304 0 0 0-.113-.085.3.3 0 0 0-.146-.031 1 1 0 0 0-.159.018q-.084.012-.167.036a2 2 0 0 0-.182.057c-.028.01-.062.026-.09.039-.051.021-.1.041-.159.069l-.033.013q-.102.048-.162.077l-.036.015a.2.2 0 0 1-.049.015v-.005s0-.005.005-.005a.02.02 0 0 1 .013-.015l.015-.013c.033-.031.085-.069.134-.105l.057-.044a1 1 0 0 0 .057-.049c.01-.01.018-.021.015-.026l-.015-.028a1 1 0 0 0-.113-.123c-.069-.064-.146-.116-.18-.08a.02.02 0 0 0-.01.013q-.007.001-.013.01a2 2 0 0 0-.11.123q-.038.042-.08.092c-.042.05-.059.072-.092.116s-.067.087-.1.134-.077.1-.116.159-.077.113-.121.175a7 7 0 0 0-.128.193q-.112.177-.216.331.001-.008-.005-.015a.3.3 0 0 0-.077-.134.47.47 0 0 0-.221-.128 1 1 0 0 0-.105-.023.3.3 0 0 1-.141-.046l-.023-.018-.033-.026a.2.2 0 0 0-.067-.041.1.1 0 0 0-.067-.005.04.04 0 0 0-.026 0 .2.2 0 0 0-.064.021q-.022.008-.049.021a6 6 0 0 0-.378.154q-.252.106-.485.249-.15.09-.285.2-.046.035-.087.074l-.08.077a6 6 0 0 0-.506.6.34.34 0 0 0-.1-.172 1.03 1.03 0 0 0-.555-.277q-.057-.009-.105-.018a1 1 0 0 1-.116-.028l-.044-.015-.039-.018a.3.3 0 0 1-.074-.065l-.01-.021a.03.03 0 0 0-.01-.013.03.03 0 0 0-.021-.008h-.01s-.01-.002-.015 0a1 1 0 0 0-.2.141c-.044.036-.18.144-.36.3q-.043.035-.085.074l-.164.141a9 9 0 0 0-.536.509 7.468 7.468 0 0 0-.498.547 5 5 0 0 0-.241.334 7 7 0 0 0-.426.706.253.253 0 0 0 .031.337q-.133.096-.283.2c-.15.104-.2.144-.308.216-.069.046-.141.1-.216.146l-.218.149-.218.146-.11.072c-.072.046-.144.1-.213.141s-.141.09-.208.134l-.247.154c-.08.049-.154.1-.226.136a4 4 0 0 1-.159.092l-.141.077q-.062.034-.113.057a.4.4 0 0 1-.157.046h-.008l-.008-.01c.131-.405.336-.782.606-1.112q.032-.045.067-.1.376-.52.832-.971c.1-.1.213-.206.326-.3l.074-.062a1 1 0 0 1 .1-.077q.038-.028.072-.051.096-.069.2-.126.092-.05.17-.085a1 1 0 0 1 .116-.044c.1-.039.175-.054.216-.067l.026-.013c.005 0 .008-.008.01-.01a.03.03 0 0 0 0-.021 1.2 1.2 0 0 0-.185-.262l-.051-.057a.4.4 0 0 0-.057-.057q-.02-.022-.041-.041a1 1 0 0 0-.164-.134.3.3 0 0 0-.105-.046h-.01a1.8 1.8 0 0 0-.706.419q-.103.08-.218.18c-.115.1-.157.136-.236.211s-.167.157-.254.241l-.162.162q-.165.166-.334.354a5.3 5.3 0 0 0-.927 1.367 1.25 1.25 0 0 0-.141.735l-.062.039q-.078.05-.164.108-.174.109-.37.236l-.2.126-.5.311c-.193.116-.385.231-.568.339s-.36.2-.519.288c-.393.206-.681.324-.735.257l-.008-.015a.3.3 0 0 1 0-.074.8.8 0 0 1 .08-.269q.267-.575.663-1.069.563-.728 1.22-1.374.108-.111.229-.226.21-.199.354-.329.048-.046.087-.082a.3.3 0 0 1 .036-.036c.116-.123.157-.2.1-.247a.1.1 0 0 0-.023-.018c-.162-.1-.663-.624-1.012-.321a1 1 0 0 0-.087.082q-.299.341-.542.724a9 9 0 0 1-.457.581c-.349.408-.706.866-.989 1.272a6 6 0 0 0-.406.655 1.5 1.5 0 0 0-.126.306.93.93 0 0 0 0 .552c-.879.642-1.88 1.323-2.751 1.921q-.046.032-.085.057c-.039.025-.049.026-.072.039q-.123.062-.162.023c-.054-.059.059-.3.344-.714.118-.17.293-.419.488-.709.3-.434.645-.956.95-1.433q.114-.178.221-.344.102-.166.2-.316c.098-.15.113-.193.159-.275s.087-.159.118-.223q.104-.212.247-.4c.241-.316.473-.48.365-.6a.23.23 0 0 0-.092-.062l-.072-.026-.069-.021-.064-.015-.062-.013a2 2 0 0 1-.221-.046.54.54 0 0 1-.198-.118 1.4 1.4 0 0 1-.152-.185.6.6 0 0 0-.105-.121 1.2 1.2 0 0 0-.344-.231 1.866 1.866 0 0 0-1.169-.152 2 2 0 0 0-.231.067c-.3.141-.582.32-.837.532a9.594 9.594 0 0 0-.986.905q-.224.232-.452.491-.48.554-.9 1.156a11.7 11.7 0 0 0-.961 1.585 4.1 4.1 0 0 0-.416 1.41q-.038.407.013.812.026.206.1.4l.033.085q.038.077.077.144.062.098.141.182.032.031.067.062a1 1 0 0 0 .223.136 1 1 0 0 0 .334.075 1.2 1.2 0 0 0 .577-.128 1.5 1.5 0 0 0 .368-.241q.059-.05.113-.1c.054-.05.069-.064.1-.1q.365-.39.686-.819a.1.1 0 0 1 .036-.036l.023-.021a.1.1 0 0 1 .085-.028q.002-.001.008.005c.006.006.005 0 .008.005s.008.008.013.013a.04.04 0 0 1 .018.018 1.118 1.118 0 0 1 .085.108c.031.044.067.1.108.152l.031.041.023.031q.062.078.136.157c.074.079.087.082.136.121a1 1 0 0 0 .154.1.75.75 0 0 0 .334.085 1 1 0 0 0 .365-.08q.174-.075.324-.19.119-.089.239-.185.178-.15.36-.3c.239-.205.475-.424.706-.642s.457-.442.67-.652l.18-.177q.056-.06.113-.11c.057-.05.069-.074.108-.11s.069-.072.105-.105a6 6 0 0 1 .2-.2l.092-.092q.043-.046.087-.085c.044-.039.054-.057.082-.082a.2.2 0 0 1 .033.031 1 1 0 0 0 .208.162c.193.1.483.087 1.218-.211a6.1 6.1 0 0 0 1.566-1.017c.329-.28.611-.55.827-.76a1 1 0 0 1 .074-.069q.164.133.367.193.122.04.249.026l.074-.015q.042-.01.087-.026l.254-.1a6.6 6.6 0 0 0 1.605-1.158l.27-.252q.214-.203.4-.385.119-.119.221-.226a.58.58 0 0 0 .493.133 1 1 0 0 0 .072-.031l-.059.028a3 3 0 0 0 1.174-.555q.334-.236.637-.511a6 6 0 0 0 .344-.342q.239-.25.437-.534a.6.6 0 0 0 .251.326q.025.016.054.028l.057.018a.3.3 0 0 0 .064.005h.015a3 3 0 0 0 1.23-.619c.149-.1.3-.206.444-.313l.123-.09q.207-.158.393-.342l.062.059.026.026a.4.4 0 0 0 .082.059.05.05 0 0 0 .039 0l.018-.013.028-.054q.146-.422.393-.794a2 2 0 0 1 .241-.285q.048-.043.1-.087c.052-.044.069-.059.105-.085q.105-.084.218-.159.161-.108.319-.193a6 6 0 0 1 .545-.262.3.3 0 0 1 .054-.021h.005c.062-.021.118-.039.131-.018s-.005.067-.1.175l-.013.015a.1.1 0 0 0-.021.018l-.146.157a10 10 0 0 0-.452.519 3 3 0 0 0-.262.362l-.036.069a.35.35 0 0 0-.054.259.4.4 0 0 0 .044.085q.016.022.028.046l.044.056c.046.039.113.039.236-.01q.114-.045.221-.105a3 3 0 0 0 .211-.128q.086-.053.167-.113c.134-.1.265-.2.37-.293l.1-.087.044-.044.041-.049a.7.7 0 0 0 .128-.228.4.4 0 0 1 .069-.121.5.5 0 0 0 .067-.092m-20.165 7.763q-.496.696-1.074 1.325c-.149.159-.288.3-.424.434a8 8 0 0 1-.773.691 2.1 2.1 0 0 1-.537.329c-.288.092.229-1.477 1.246-3.247q.128-.218.259-.419a7.2 7.2 0 0 1 1.364-1.562 9.5 9.5 0 0 1 1.372-.956q.135-.086.285-.141c.383-.131.239.3-.2 1.11a23 23 0 0 1-1.521 2.435m14.179-6.025a3 3 0 0 1-.3.5 5.2 5.2 0 0 1-2.055 1.562c-.09.023.075-.3.331-.676q.137-.203.293-.408c.214-.297.475-.558.773-.771a1 1 0 0 1 .123-.067c.123-.041.149-.092.141-.193s.308-.257.46-.285a.223.223 0 0 1 .231.339m1.963-.085a3.7 3.7 0 0 1-1.279.676c-.067.013.077-.408.462-.881q.123-.151.267-.283.17-.156.372-.267a1.5 1.5 0 0 1 .342-.139c.221-.057.177-.092.105-.144q-.033-.026-.015-.044l.028-.023q.11-.048.226-.082c.221-.074.432-.072.414.1-.023.229-.247.565-.922 1.084" class="cc"/><path id="c`" d="M39.613 37.925c-.023.229-.247.565-.922 1.084a3.7 3.7 0 0 1-1.279.676c-.067.013.077-.408.462-.881q.123-.151.267-.283.17-.156.372-.267a1.5 1.5 0 0 1 .342-.139c.221-.057.177-.092.105-.144q-.033-.026-.015-.044l.028-.023q.11-.049.226-.082c.221-.074.432-.072.414.1"/></g></svg>