<svg xmlns="http://www.w3.org/2000/svg" id="_레이어_2" viewBox="0 0 204.31 190.35"><defs><style>.cls-1{fill:none}</style></defs><g id="Layer_1"><path d="M65.43 38.99c-3.89-1.39-7.82-2.68-11.6-4.31-1.99-.86-3.38-.53-4.99.73-7.85 6.11-14.98 12.94-21.21 20.71-5.92 7.38-6.01 9.35-.53 17.21 8.31 11.92 20.87 13.16 31.1 2.84 8.33-8.4 11.37-19.01 11.93-28.89 0-7.76.26-6.51-4.7-8.28ZM32.59 30.4c5.26-5.01 5.9-3.24-.97-8.27-1.33-.98-2.11-.64-2.8.7-1.76 3.43-3.75 6.76-5.02 10.42-.89 2.55-1.77 5.13-1.92 8.07 1.03-.28 1.36-.97 1.83-1.51 2.84-3.25 5.74-6.43 8.88-9.41ZM165.91 140.78c-4.04-.78-7.53 1.83-7.45 5.9.07 3.16-1.15 5.47-3.38 7.46-.96.85-2.04 1.62-2.81 2.62-.99 1.28-3.29 2.66-1.95 4.26 1.18 1.41 3.37.04 4.72-.93 4.62-3.31 9.07-6.87 12.77-11.25.89-1.05 1.58-2.27 1.54-3.13-.06-2.93-1.09-4.48-3.44-4.94ZM91.78 16.36c-6.19.92-12.19 2.48-18.01 4.79a73.102 73.102 0 0 0-12.43 6.4c9.3 3.53 18.75 5.54 28.43 6.58 1.84.2 2.41-.76 2.39-2.45-.06-4.42.62-8.77 1.7-13.04.53-2.08.05-2.6-2.09-2.28Z" class="cls-1"/><path d="M202.11 56.76c-.51-.93-1.1-2.09-2.31-2.1-.67 0-1.3.27-1.9.55-5.94 2.78-11.49 6.36-17.59 8.78-17.67 7-35.25-1.64-51.56-8.25-5.88-2.38-11.88-3.06-18.1-1.94-6.51 1.17-6.5 1.2-7.78-5.47-.03-.18-.06-.36-.11-.54-.37-1.29.01-1.93 1.46-1.8 9.74.83 19.45.4 29.15-.64 17.33-1.85 33.98-6.14 49.56-14.08 4.32-2.2 8.69-4.41 12.1-8.06 1.39-1.49 1.5-2.76-.05-4.23-3-2.85-5.95-5.74-8.82-8.72-1.34-1.39-2.29-1.21-3.7-.03-2.53 2.13-5.15 4.17-7.91 5.97-21.27 13.89-44.98 18.86-70 18.96-2.07 0-2.5-1.08-2.35-2.81.97-10.87 4.12-20.84 11.8-28.98.67-.71 1.89-1.38 1.51-2.44-.45-1.27-1.89-.89-2.92-.86-8.36.22-16.69.75-24.94 2.3-14.94 2.8-28.56 8.81-41.32 16.92-1.06.68-1.97 1.58-3.47.74-7.62-4.24-15.61-7.83-22.77-12.88-2.28-1.61-4.52-3.26-6.78-4.89 2.27 4.42 5.5 7.99 8.74 11.54 1.33 1.45 1.72 2.44.52 4.21-7.47 11-10.86 23.2-10.29 36.48.06 1.51-.29 2.87-.95 4.24-11.57 23.79-14.2 48.6-8.26 74.33.29 1.26.29 3.67 1.46 3.42 1.6-.35.7-2.51.5-3.83-3.06-20.14.46-39.13 9.84-57.11.44-.84.57-2.22 1.77-2.21 1.01.01 1.15 1.29 1.59 2.06 9.89 17.25 28.82 20.75 44.27 8.21 6.38-5.18 10.61-11.86 13.78-19.32 2.54-5.99 3.66-12.31 4.22-18.74.17-1.93.9-2.51 2.84-2.08 2.59.58 5.24.94 7.89 1.27 1.49.19 2.28.87 2.63 2.34.7 2.95 1.46 5.91 3 8.56.73 1.25.73 2.15.13 2.92 2.63 3.15 4.96 6.1 6.13 10.42.12-.6.4-1.1 1.16-1.25 1.19-.23 1.82 1.09 2.39 2 3.02 4.9 6.8 9.08 11.35 12.62 4.83 3.76 9.98 6.16 16.28 5 4.04-.75 6.94 1.3 9.34 4.12 1.9 2.23 3.55 4.68 5.23 7.09 2.31 3.32 4.7 6.58 7.55 9.46 2.48 2.51 3.48 5.54 3.59 9.2-.54 5.2-1.99 10.43-3.94 15.49-4.11 10.7-7.73 21.67-14.55 31.09-2.66 3.68-3.42 4.96-4.71 4.63-.14 2.33-.41 4.87-.74 7.3.13 0 .26.03.41.08 1.04.35.84 1.51.95 2.4.16 1.26.4 2.48 1.91 1.03 4.99-4.8 10.93-8.38 16.25-12.75 7.1-5.83 14.08-11.81 20.93-17.92 5.76-5.14 11.51-10.43 15.18-17.34a73.532 73.532 0 0 0 3.04-6.46c3.52-8.5 5.46-17.47 6.85-26.53 1.47-9.53 2.46-19.14 2.68-28.78.1-4.43.01-8.7-2.18-12.69ZM21.89 41.32c.14-2.94 1.03-5.52 1.92-8.07 1.27-3.66 3.26-6.98 5.02-10.42.69-1.34 1.47-1.68 2.8-.7 6.87 5.03 6.22 3.27.97 8.27-3.14 2.99-6.04 6.16-8.88 9.41-.46.53-.79 1.22-1.83 1.51Zm48.25 5.96c-.57 9.87-3.6 20.48-11.93 28.89-10.23 10.32-22.79 9.09-31.1-2.84-5.48-7.86-5.39-9.83.53-17.21 6.23-7.77 13.36-14.6 21.21-20.71 1.61-1.25 2.99-1.58 4.99-.73 3.79 1.63 7.71 2.92 11.6 4.31 4.97 1.77 4.71.53 4.7 8.28Zm23.73-28.63c-1.09 4.27-1.77 8.62-1.7 13.04.02 1.69-.55 2.65-2.39 2.45-9.68-1.04-19.13-3.05-28.43-6.58 4-2.56 8.1-4.68 12.43-6.4 5.82-2.32 11.82-3.88 18.01-4.79 2.13-.32 2.61.2 2.09 2.28Zm73.94 130.2c-3.7 4.38-8.14 7.93-12.77 11.25-1.35.97-3.54 2.34-4.72.93-1.34-1.6.97-2.97 1.95-4.26.77-1 1.85-1.77 2.81-2.62 2.23-1.99 3.45-4.31 3.38-7.46-.09-4.06 3.41-6.68 7.45-5.9 2.35.45 3.38 2.01 3.44 4.94.04.86-.65 2.07-1.54 3.13Z"/><path d="M132.39 165.55c-9.3-6.4-18.55-12.88-27.8-19.35-1.89-1.32-3.54-2.94-5-4.72-3.42-4.15-2.37-8.78 2.46-11.08 5.94-2.83 6.33-4.51 2.15-9.46-.5-.59-1.05-1.21-.63-1.94.5-.87 1.32-.25 1.97-.09 5.95 1.37 11.61 3.41 16.75 6.8.92.6 2.12 1.8 3.2.77 1.19-1.15.01-2.5-.66-3.44-4.4-6.14-9.38-11.64-17.25-13.18-2.51-.49-2.93-1.79-2.44-3.89.1-.45.28-.88.4-1.32q1.28-4.35 5.76-4.17c.64.03 1.29.04 1.93-.04 2.65-.33 3.19-1.49 1.64-3.66-2.76-3.88-6.31-6.94-10.36-9.34-2.55-1.51-3.61-3.29-2.98-6.33.71-3.41.9-6.91 1.42-10.36.08-.53.05-1.18.16-1.75-1.17-4.32 6.52-16.42-6.13-10.42-.3.38-.73.73-1.32 1.08-3.66 2.13-7.07 4.63-10.29 7.38-9.04 7.7-16.25 16.84-20.19 28.09-1.4 3.98-3.61 6.41-7.24 7.94-7.62 3.21-15.23 6.44-22.88 9.57-4.12 1.69-4.78 3.14-3.15 7.42 1.15 2.99 2.96 5.7 3.53 8.94.94 5.37-.16 7.39-5.32 9.15-.43.15-.88.27-1.33.35-2.66.49-3.83 2.35-4.31 4.77-.55 2.78.25 5.32 1.79 7.58 2.19 3.24 4.92 5.94 8.47 7.71 1.89.95 3.8 1.83 5.84 2.44 2.01.59 4.08.74 6.17.8-5.3.8-10.23-.31-14.97-2.6-2.27-1.09-4.05-2.86-6.16-4.14-1.88-1.14-3.89-1.66-5.99-.43-2.06 1.21-2.12 3.19-1.73 5.1 1.1 5.4-1.3 9.14-5.24 12.44-2.99 2.5-5.23 5.65-6.53 9.39-.56 1.62-.12 2.32 1.68 1.79 1.5-.44 3-.88 4.52-1.23 22.77-5.12 45.42-3.66 68.03 1.21 8.54 1.84 16.61 5.37 25.3 6.64 10.47 1.52 19.29-1.12 25.86-9.81.77-1.02 1.65-1.98 2.51-2.93.58-.64 1.15-1.53 2.06-1.48 1.81-2.42 6.9-6.79.74-7.3-.91-.23-2.09-1.28-4.42-2.88Z" style="fill:#501f64"/></g></svg>