<svg xmlns="http://www.w3.org/2000/svg" xml:space="preserve" width="325" height="200" class="home-header__logo" viewBox="0 8.8 325 200.00001"><g style="opacity:1"><path d="M73.67 1.248h325v200h-325z" style="fill:#003b62;fill-opacity:1;stroke-width:5.90852;stroke-linecap:round;stroke-miterlimit:5.2;stop-color:#000" transform="translate(-73.67 7.552)"/><path fill="#ff9c00" d="M125.88 63.167a60.286 60.286 0 0 1 73.102 0l14.881-18.396a83.85 83.85 0 0 0-103.003 0z"/><path fill="#4a4c4e" d="m321.234 33.868-17.16 21.65c23.19 21.615 28.319 56.41 12.35 83.796l-38.17-36.725-17.801-40.094v60.942l37.447 36.325c-24.882 18.55-58.994 18.55-83.876 0l37.768-36.325V62.495l-17.801 40.094-38.17 36.485c-15.918-27.258-10.932-61.894 12.029-83.555l-17.16-21.651a95.343 95.343 0 0 0-31.594 70.966c1.507 52.436 44.449 94.161 96.906 94.161 52.457 0 95.4-41.725 96.906-94.161a95.423 95.423 0 0 0-31.674-70.966z" style="fill:#fff;fill-opacity:1" transform="translate(-57.462 19.529) scale(.85922)"/></g></svg>