<svg xmlns="http://www.w3.org/2000/svg" width="1500" height="235"><path d="M31.938 53.969c-18.15 0-32.75 11.258-32.75 25.218v75.594c0 9.41 6.645 17.578 16.53 21.906l27.25-27.25V88h78.376v57.656h-57l-34.281 34.281c.622.027 1.243.032 1.875.032h99.593c18.15 0 32.75-11.227 32.75-25.188V86.844l-19.344-30.656a41.32 41.32 0 0 0-13.406-2.22H31.937zM1195.453 53.978c-1.674 0-3.31.091-4.914.276l-27.847 42.052v58.472c0 13.96 14.611 25.2 32.76 25.2h90.708c18.15 0 32.76-11.24 32.76-25.2v-25.87h-43.694v16.735h-68.348V87.998h68.348v14.372h43.695V79.178c0-13.96-14.612-25.2-32.761-25.2h-90.707z" style="color:#000;fill:#fff;fill-opacity:1;fill-rule:nonzero;stroke:none;stroke-width:9;visibility:visible;display:inline;overflow:visible;enable-background:accumulate"/><path d="m159.266 53.978 79.609 126h31.409l79.61-126h-48.487l-46.848 74.93-46.807-74.93h-48.486z" style="fill:#fff;fill-opacity:1;stroke:none"/><path d="m367.093 53.978-20.517 32.484v93.516h133.01v-34.335h-89.97v-14.372h60.485V102.37h-60.485V87.998h89.97v-34.02H367.093zM496.417 53.978v126h43.53v-91.98h66.096v18.585h-47.667v25.24l52.786 48.155h58.56l-52.786-48.156h4.914c14.52 0 26.209-10.115 26.209-22.68V76.658c0-12.565-11.69-22.68-26.209-22.68H496.417z" style="color:#000;fill:#fff;fill-opacity:1;fill-rule:nonzero;stroke:none;stroke-width:9;visibility:visible;display:inline;overflow:visible;enable-background:accumulate"/><path d="m843.801 179.978 83.341-126H960.024l83.34 126h-50.758l-49.045-74.93-49 74.93H843.8zM655.184 53.978l55.243 126h27.479l28.788-62.094 27.397 62.094h30.017l55.284-126h-42.958l-26.209 62.96-27.806-62.96h-28.625l-27.805 62.96-26.455-62.96h-44.35z" style="fill:#fff;fill-opacity:1;stroke:none"/><path d="M1009.125 53.978v34.02h54.056v91.98h43.08v-91.98h42.794l22.564-34.02h-162.494zM1335.588 53.978v126h44.227v-48.392h74.654v48.392H1498v-126h-43.531v44.297h-74.654V53.978h-44.227z" style="color:#000;fill:#fff;fill-opacity:1;fill-rule:nonzero;stroke:none;stroke-width:9;visibility:visible;display:inline;overflow:visible;enable-background:accumulate"/><path d="M219.583 53.978 254.58 2.362l34.997 51.616h-34.997zM908.587 179.978l34.995 51.616 34.997-51.616h-34.997z" style="fill:#fa9c1e;fill-opacity:1;stroke:none"/></svg>